<svg width="111" height="38" viewBox="0 0 111 38" fill="none" xmlns="http://www.w3.org/2000/svg">
<path d="M0.675189 26.7578L7.84422 10.5173H12.3684L19.5606 26.7578H14.7813L9.16667 12.7678H10.9763L5.36174 26.7578H0.675189ZM4.59612 23.6025L5.77936 20.2152H13.714L14.8973 23.6025H4.59612ZM24.7525 27.0826C23.5615 27.0826 22.4788 26.8815 21.5044 26.4794C20.5454 26.0618 19.7489 25.4663 19.1147 24.6929L21.6204 21.7232C22.0535 22.2801 22.502 22.7054 22.966 22.9993C23.4301 23.2777 23.9173 23.4169 24.4277 23.4169C25.7888 23.4169 26.4694 22.6281 26.4694 21.0504V14.067H20.8548V10.5173H31.0167V20.772C31.0167 22.891 30.4831 24.4764 29.4159 25.5282C28.3486 26.5645 26.7942 27.0826 24.7525 27.0826ZM34.1173 26.7578V10.5173H37.899L46.8545 21.3288H45.068V10.5173H49.569V26.7578H45.7873L36.8318 15.9463H38.6182V26.7578H34.1173ZM50.8604 26.7578L58.0295 10.5173H62.5536L69.7458 26.7578H64.9665L59.3519 12.7678H61.1616L55.547 26.7578H50.8604ZM54.7814 23.6025L55.9646 20.2152H63.8993L65.0825 23.6025H54.7814Z" fill="white"/>
<path d="M50.693 37.627V30.0379H51.7772V37.627H50.693ZM54.0492 37.627V30.0379H54.9382L59.9578 36.2718H59.4917V30.0379H60.5758V37.627H59.6868L54.6672 31.3931H55.1334V37.627H54.0492ZM66.2407 37.7137C65.6625 37.7137 65.1277 37.6197 64.6362 37.4318C64.1519 37.2367 63.7291 36.9656 63.3677 36.6187C63.0136 36.2645 62.7353 35.8526 62.533 35.3828C62.3306 34.913 62.2294 34.3962 62.2294 33.8324C62.2294 33.2687 62.3306 32.7519 62.533 32.2821C62.7353 31.8123 63.0172 31.4039 63.3786 31.057C63.74 30.7029 64.1628 30.4318 64.647 30.2439C65.1385 30.0488 65.6734 29.9512 66.2516 29.9512C66.837 29.9512 67.3755 30.0524 67.867 30.2547C68.3657 30.4499 68.7885 30.7426 69.1354 31.1329L68.4307 31.8159C68.1416 31.5124 67.8164 31.2883 67.455 31.1437C67.0936 30.992 66.7069 30.9161 66.2949 30.9161C65.8685 30.9161 65.471 30.9884 65.1024 31.1329C64.741 31.2775 64.4266 31.4798 64.1592 31.74C63.8918 32.0002 63.6821 32.311 63.5304 32.6724C63.3858 33.0266 63.3135 33.4132 63.3135 33.8324C63.3135 34.2516 63.3858 34.6419 63.5304 35.0033C63.6821 35.3575 63.8918 35.6646 64.1592 35.9248C64.4266 36.185 64.741 36.3874 65.1024 36.532C65.471 36.6765 65.8685 36.7488 66.2949 36.7488C66.7069 36.7488 67.0936 36.6765 67.455 36.532C67.8164 36.3802 68.1416 36.1489 68.4307 35.8381L69.1354 36.5211C68.7885 36.9114 68.3657 37.2077 67.867 37.4101C67.3755 37.6125 66.8334 37.7137 66.2407 37.7137Z" fill="white"/>
<path fill-rule="evenodd" clip-rule="evenodd" d="M90.3672 37.2335H94.5151C103.616 37.2335 110.994 29.8556 110.994 20.7544L110.994 0.988282L105.339 0.988281L105.339 20.8225C105.339 29.4154 98.7619 36.4723 90.3672 37.2335Z" fill="white"/>
<path fill-rule="evenodd" clip-rule="evenodd" d="M91.1978 12.1035C82.0967 12.1035 74.7188 19.4814 74.7188 28.5826L74.7188 37.2995L83.4357 37.2995C92.5368 37.2995 99.9148 29.9216 99.9148 20.8205L99.9148 12.1035L91.1978 12.1035ZM94.083 18.2159C90.9746 15.1131 85.9347 15.1131 82.8262 18.2159C79.7177 21.3188 79.7177 26.3495 82.8262 29.4523C85.9347 32.5552 90.9746 32.5552 94.083 29.4523C97.1915 26.3495 97.1915 21.3188 94.083 18.2159Z" fill="white"/>
<path fill-rule="evenodd" clip-rule="evenodd" d="M91.2134 0.988281C82.1123 0.988279 74.7344 8.36621 74.7344 17.4673L74.7344 22.4646C75.092 13.6798 82.3269 6.66766 91.1996 6.66766L110.98 6.66767V0.988285L91.2134 0.988281Z" fill="white"/>
<ellipse cx="5.49419" cy="5.4942" rx="5.49419" ry="5.4942" transform="matrix(1 -0.000909529 -0.000909529 1 82.9609 18.3574)" fill="white"/>
</svg>
