<svg width="265" height="28" viewBox="0 0 265 28" fill="none" xmlns="http://www.w3.org/2000/svg">
<path fill-rule="evenodd" clip-rule="evenodd" d="M28 14C28 21.732 21.732 28 14 28C6.26801 28 0 21.732 0 14C0 6.26801 6.26801 0 14 0C18.2992 0 22.1458 1.93788 24.714 4.98778C23.3722 4.50591 21.9259 4.24336 20.4183 4.24336C13.4002 4.24336 7.71094 9.93262 7.71094 16.9507C7.71094 19.5601 8.49746 21.9858 9.84638 24.0037C9.38068 22.6821 9.12734 21.2603 9.12734 19.7794C9.12734 19.0853 9.18299 18.4042 9.29007 17.7404C10.2744 19.3036 12.0155 20.3423 13.9993 20.3423C17.0705 20.3423 19.5602 17.8525 19.5602 14.7813C19.5602 11.9467 17.4395 9.60753 14.6981 9.2638C16.7324 7.8805 19.1891 7.07207 21.8347 7.07207C23.5439 7.07207 25.1743 7.40953 26.6629 8.02146C27.5204 9.83451 28 11.8612 28 14Z" fill="#D12937"/>
<path fill-rule="evenodd" clip-rule="evenodd" d="M14.0479 27.9907C21.7559 27.9907 28.0044 21.7422 28.0044 14.0342C28.0044 12.435 27.7354 10.8985 27.2402 9.46771C26.4895 9.33744 25.7174 9.26953 24.9294 9.26953C22.4652 9.26953 20.1561 9.93362 18.1713 11.0926C19.734 12.2285 20.75 14.0709 20.75 16.1506C20.75 19.6017 17.9523 22.3994 14.5012 22.3994C13.4326 22.3994 12.4266 22.1312 11.547 21.6583C11.521 21.9992 11.5078 22.3436 11.5078 22.6911C11.5078 24.5431 11.8829 26.3075 12.5613 27.9125C13.0498 27.9642 13.5457 27.9907 14.0479 27.9907Z" fill="#D12937"/>
<path fill-rule="evenodd" clip-rule="evenodd" d="M14.0526 27.9913C21.7606 27.9913 28.0091 21.7428 28.0091 14.0348C28.0091 13.0581 27.9088 12.1048 27.7179 11.1848C27.4749 11.1717 27.2303 11.165 26.9841 11.165C24.1799 11.165 21.5765 12.025 19.4234 13.4956C19.5211 13.9082 19.5727 14.3386 19.5727 14.7811C19.5727 17.7728 17.2103 20.2127 14.2492 20.3371C13.8037 21.6726 13.5625 23.1014 13.5625 24.5866C13.5625 25.763 13.7138 26.904 13.9981 27.9912C14.0163 27.9913 14.0344 27.9913 14.0526 27.9913Z" fill="#D12937"/>
<path fill-rule="evenodd" clip-rule="evenodd" d="M15.4387 27.9315C22.4933 27.2332 28.0036 21.2818 28.0036 14.0435C28.0036 13.6912 27.9906 13.3419 27.9649 12.9961C25.2613 13.1567 22.7731 14.1176 20.7339 15.6452C20.7477 15.8143 20.7547 15.9854 20.7547 16.1581C20.7547 19.09 18.7355 21.5503 16.0118 22.2242C15.5833 23.5367 15.3516 24.9382 15.3516 26.3937C15.3516 26.9138 15.3811 27.4269 15.4387 27.9315Z" fill="#D12937"/>
<path fill-rule="evenodd" clip-rule="evenodd" d="M27.9272 14.7705C27.596 21.1865 22.932 26.4568 16.8047 27.7118C16.94 21.2097 21.6992 15.8441 27.9272 14.7705Z" fill="#D12937"/>
<path fill-rule="evenodd" clip-rule="evenodd" d="M27.7866 16.2832C26.9692 21.3277 23.4479 25.4658 18.7578 27.1621C19.4611 22.0621 23.0297 17.8768 27.7866 16.2832Z" fill="#D12937"/>
<path fill-rule="evenodd" clip-rule="evenodd" d="M19.4972 4.27623C12.9065 4.7455 7.70547 10.2409 7.70547 16.9511C7.70547 21.684 10.293 25.8126 14.1306 27.9994C14.0871 27.9998 14.0436 28 14 28C6.26801 28 0 21.732 0 14C0 6.26801 6.26801 0 14 0C18.2992 0 22.1458 1.93788 24.714 4.98778C23.3722 4.50591 21.9259 4.24336 20.4183 4.24336C20.1085 4.24336 19.8013 4.25444 19.4972 4.27623Z" fill="#0044C9"/>
<path fill-rule="evenodd" clip-rule="evenodd" d="M10.0891 9.54011C12.2288 6.56479 15.6229 4.55209 19.4972 4.27623C19.8013 4.25444 20.1085 4.24336 20.4183 4.24336C21.9259 4.24336 23.3722 4.50591 24.714 4.98778C22.1458 1.93788 18.2992 0 14 0C6.26801 0 0 6.26801 0 14C0 15.5489 0.251544 17.0391 0.716011 18.4319C1.65794 13.8274 5.40222 10.2436 10.0891 9.54011Z" fill="#0044C9"/>
<path fill-rule="evenodd" clip-rule="evenodd" d="M20.4327 4.24336C21.4602 4.24336 22.4593 4.36533 23.4162 4.59558C23.4823 4.61147 23.5481 4.62787 23.6137 4.64479C23.9962 4.74332 24.3717 4.8592 24.7394 4.99156C22.1712 1.93948 18.3232 0 14.0222 0C9.84571 0 6.09633 1.82885 3.53125 4.72941C5.24772 4.00804 7.13324 3.60938 9.11187 3.60938C11.4657 3.60938 13.6877 4.17355 15.6502 5.17406C17.1264 4.57395 18.7409 4.24336 20.4327 4.24336Z" fill="#0044C9"/>
<mask id="path-10-outside-1_2382_2130" maskUnits="userSpaceOnUse" x="160.156" y="4" width="81" height="23" fill="black">
<rect fill="white" x="160.156" y="4" width="81" height="23"/>
<path d="M170.714 21L163.499 9.26433V21H161.359V5.00774H163.451L170.906 17.0801V5.00774H173.022V21H170.714ZM185.166 21V19.1723C184.653 19.7655 184.06 20.2385 183.386 20.5912C182.713 20.9439 181.999 21.1202 181.246 21.1202C180.412 21.1202 179.627 20.9679 178.889 20.6633C178.168 20.3587 177.526 19.9258 176.965 19.3647C176.404 18.8196 175.963 18.1783 175.643 17.4408C175.338 16.6873 175.186 15.9017 175.186 15.0841C175.186 14.2664 175.338 13.4889 175.643 12.7514C175.963 11.9978 176.404 11.3405 176.965 10.7794C177.526 10.2183 178.168 9.78538 178.889 9.48077C179.627 9.17615 180.412 9.02384 181.246 9.02384C182.015 9.02384 182.737 9.18417 183.41 9.50481C184.1 9.82546 184.685 10.2744 185.166 10.8515V9.26433H187.33V21H185.166ZM181.246 11.1642C180.717 11.1642 180.204 11.2684 179.707 11.4768C179.226 11.6692 178.809 11.9417 178.456 12.2944C178.104 12.6472 177.823 13.072 177.615 13.569C177.422 14.05 177.326 14.555 177.326 15.0841C177.326 15.6131 177.422 16.1182 177.615 16.5991C177.823 17.0801 178.104 17.4969 178.456 17.8496C178.809 18.2024 179.226 18.4829 179.707 18.6913C180.204 18.8837 180.717 18.9799 181.246 18.9799C181.775 18.9799 182.28 18.8837 182.761 18.6913C183.242 18.4829 183.659 18.2024 184.011 17.8496C184.364 17.4969 184.637 17.0801 184.829 16.5991C185.037 16.1182 185.142 15.6131 185.142 15.0841C185.142 14.555 185.037 14.05 184.829 13.569C184.637 13.072 184.364 12.6472 184.011 12.2944C183.659 11.9417 183.242 11.6692 182.761 11.4768C182.28 11.2684 181.775 11.1642 181.246 11.1642ZM195.8 21H193.756L189.018 8.97575H191.303L194.79 17.7535L198.253 8.97575H200.537L195.8 21ZM203.798 7.24426C203.494 7.24426 203.229 7.14004 203.005 6.93162C202.796 6.70717 202.692 6.44264 202.692 6.13802C202.692 5.83341 202.796 5.57689 203.005 5.36847C203.229 5.14402 203.494 5.03179 203.798 5.03179C204.103 5.03179 204.359 5.14402 204.568 5.36847C204.792 5.57689 204.905 5.83341 204.905 6.13802C204.905 6.44264 204.792 6.70717 204.568 6.93162C204.359 7.14004 204.103 7.24426 203.798 7.24426ZM202.812 21V8.97575H204.832V21H202.812ZM212.41 26.1223C210.502 26.1223 208.851 25.2726 207.456 23.5732L209.356 22.4429C210.222 23.4529 211.24 23.958 212.41 23.958C212.939 23.958 213.444 23.8538 213.925 23.6453C214.406 23.4369 214.823 23.1483 215.176 22.7796C215.529 22.4108 215.801 21.986 215.993 21.505C216.202 21.024 216.306 20.519 216.306 19.99V19.4128C215.216 20.6313 213.909 21.2405 212.386 21.2405C211.569 21.2405 210.783 21.0721 210.029 20.7355C209.292 20.3828 208.651 19.9098 208.106 19.3166C207.56 18.7234 207.128 18.05 206.807 17.2965C206.502 16.543 206.35 15.7654 206.35 14.9638C206.35 14.1462 206.502 13.3766 206.807 12.6552C207.128 11.9177 207.569 11.2684 208.13 10.7072C208.691 10.1621 209.332 9.73728 210.054 9.43267C210.791 9.12805 211.569 8.97575 212.386 8.97575C213.268 8.97575 214.054 9.16814 214.743 9.55291C215.432 9.93769 215.953 10.3706 216.306 10.8515V9.19218H218.47V19.99C218.47 20.8236 218.31 21.6092 217.99 22.3467C217.685 23.0842 217.252 23.7415 216.691 24.3187C216.146 24.8798 215.496 25.3207 214.743 25.6414C214.005 25.962 213.228 26.1223 212.41 26.1223ZM212.386 11.1642C211.857 11.1642 211.352 11.2684 210.871 11.4768C210.39 11.6692 209.973 11.9497 209.621 12.3185C209.268 12.6872 208.987 13.1201 208.779 13.6171C208.571 14.0981 208.466 14.6031 208.466 15.1322C208.466 15.6612 208.571 16.1743 208.779 16.6713C208.987 17.1522 209.268 17.5691 209.621 17.9218C209.973 18.2745 210.39 18.5551 210.871 18.7635C211.352 18.9719 211.857 19.0761 212.386 19.0761C212.915 19.0761 213.42 18.9719 213.901 18.7635C214.382 18.5551 214.799 18.2745 215.152 17.9218C215.505 17.5691 215.777 17.1522 215.969 16.6713C216.178 16.1743 216.282 15.6612 216.282 15.1322C216.282 14.6031 216.178 14.0981 215.969 13.6171C215.777 13.1201 215.505 12.6872 215.152 12.3185C214.799 11.9497 214.382 11.6692 213.901 11.4768C213.42 11.2684 212.915 11.1642 212.386 11.1642ZM230.609 21V19.1723C230.096 19.7655 229.503 20.2385 228.829 20.5912C228.156 20.9439 227.443 21.1202 226.689 21.1202C225.855 21.1202 225.07 20.9679 224.332 20.6633C223.611 20.3587 222.97 19.9258 222.408 19.3647C221.847 18.8196 221.406 18.1783 221.086 17.4408C220.781 16.6873 220.629 15.9017 220.629 15.0841C220.629 14.2664 220.781 13.4889 221.086 12.7514C221.406 11.9978 221.847 11.3405 222.408 10.7794C222.97 10.2183 223.611 9.78538 224.332 9.48077C225.07 9.17615 225.855 9.02384 226.689 9.02384C227.459 9.02384 228.18 9.18417 228.853 9.50481C229.543 9.82546 230.128 10.2744 230.609 10.8515V9.26433H232.773V21H230.609ZM226.689 11.1642C226.16 11.1642 225.647 11.2684 225.15 11.4768C224.669 11.6692 224.252 11.9417 223.899 12.2944C223.547 12.6472 223.266 13.072 223.058 13.569C222.865 14.05 222.769 14.555 222.769 15.0841C222.769 15.6131 222.865 16.1182 223.058 16.5991C223.266 17.0801 223.547 17.4969 223.899 17.8496C224.252 18.2024 224.669 18.4829 225.15 18.6913C225.647 18.8837 226.16 18.9799 226.689 18.9799C227.218 18.9799 227.723 18.8837 228.204 18.6913C228.685 18.4829 229.102 18.2024 229.455 17.8496C229.807 17.4969 230.08 17.0801 230.272 16.5991C230.481 16.1182 230.585 15.6131 230.585 15.0841C230.585 14.555 230.481 14.05 230.272 13.569C230.08 13.072 229.807 12.6472 229.455 12.2944C229.102 11.9417 228.685 11.6692 228.204 11.4768C227.723 11.2684 227.218 11.1642 226.689 11.1642ZM238.779 11.1401V21H236.735V11.1401H234.931V8.97575H236.735V5.00774H238.779V8.97575H240.583V11.1401H238.779Z"/>
</mask>
<path d="M170.714 21L163.499 9.26433V21H161.359V5.00774H163.451L170.906 17.0801V5.00774H173.022V21H170.714ZM185.166 21V19.1723C184.653 19.7655 184.06 20.2385 183.386 20.5912C182.713 20.9439 181.999 21.1202 181.246 21.1202C180.412 21.1202 179.627 20.9679 178.889 20.6633C178.168 20.3587 177.526 19.9258 176.965 19.3647C176.404 18.8196 175.963 18.1783 175.643 17.4408C175.338 16.6873 175.186 15.9017 175.186 15.0841C175.186 14.2664 175.338 13.4889 175.643 12.7514C175.963 11.9978 176.404 11.3405 176.965 10.7794C177.526 10.2183 178.168 9.78538 178.889 9.48077C179.627 9.17615 180.412 9.02384 181.246 9.02384C182.015 9.02384 182.737 9.18417 183.41 9.50481C184.1 9.82546 184.685 10.2744 185.166 10.8515V9.26433H187.33V21H185.166ZM181.246 11.1642C180.717 11.1642 180.204 11.2684 179.707 11.4768C179.226 11.6692 178.809 11.9417 178.456 12.2944C178.104 12.6472 177.823 13.072 177.615 13.569C177.422 14.05 177.326 14.555 177.326 15.0841C177.326 15.6131 177.422 16.1182 177.615 16.5991C177.823 17.0801 178.104 17.4969 178.456 17.8496C178.809 18.2024 179.226 18.4829 179.707 18.6913C180.204 18.8837 180.717 18.9799 181.246 18.9799C181.775 18.9799 182.28 18.8837 182.761 18.6913C183.242 18.4829 183.659 18.2024 184.011 17.8496C184.364 17.4969 184.637 17.0801 184.829 16.5991C185.037 16.1182 185.142 15.6131 185.142 15.0841C185.142 14.555 185.037 14.05 184.829 13.569C184.637 13.072 184.364 12.6472 184.011 12.2944C183.659 11.9417 183.242 11.6692 182.761 11.4768C182.28 11.2684 181.775 11.1642 181.246 11.1642ZM195.8 21H193.756L189.018 8.97575H191.303L194.79 17.7535L198.253 8.97575H200.537L195.8 21ZM203.798 7.24426C203.494 7.24426 203.229 7.14004 203.005 6.93162C202.796 6.70717 202.692 6.44264 202.692 6.13802C202.692 5.83341 202.796 5.57689 203.005 5.36847C203.229 5.14402 203.494 5.03179 203.798 5.03179C204.103 5.03179 204.359 5.14402 204.568 5.36847C204.792 5.57689 204.905 5.83341 204.905 6.13802C204.905 6.44264 204.792 6.70717 204.568 6.93162C204.359 7.14004 204.103 7.24426 203.798 7.24426ZM202.812 21V8.97575H204.832V21H202.812ZM212.41 26.1223C210.502 26.1223 208.851 25.2726 207.456 23.5732L209.356 22.4429C210.222 23.4529 211.24 23.958 212.41 23.958C212.939 23.958 213.444 23.8538 213.925 23.6453C214.406 23.4369 214.823 23.1483 215.176 22.7796C215.529 22.4108 215.801 21.986 215.993 21.505C216.202 21.024 216.306 20.519 216.306 19.99V19.4128C215.216 20.6313 213.909 21.2405 212.386 21.2405C211.569 21.2405 210.783 21.0721 210.029 20.7355C209.292 20.3828 208.651 19.9098 208.106 19.3166C207.56 18.7234 207.128 18.05 206.807 17.2965C206.502 16.543 206.35 15.7654 206.35 14.9638C206.35 14.1462 206.502 13.3766 206.807 12.6552C207.128 11.9177 207.569 11.2684 208.13 10.7072C208.691 10.1621 209.332 9.73728 210.054 9.43267C210.791 9.12805 211.569 8.97575 212.386 8.97575C213.268 8.97575 214.054 9.16814 214.743 9.55291C215.432 9.93769 215.953 10.3706 216.306 10.8515V9.19218H218.47V19.99C218.47 20.8236 218.31 21.6092 217.99 22.3467C217.685 23.0842 217.252 23.7415 216.691 24.3187C216.146 24.8798 215.496 25.3207 214.743 25.6414C214.005 25.962 213.228 26.1223 212.41 26.1223ZM212.386 11.1642C211.857 11.1642 211.352 11.2684 210.871 11.4768C210.39 11.6692 209.973 11.9497 209.621 12.3185C209.268 12.6872 208.987 13.1201 208.779 13.6171C208.571 14.0981 208.466 14.6031 208.466 15.1322C208.466 15.6612 208.571 16.1743 208.779 16.6713C208.987 17.1522 209.268 17.5691 209.621 17.9218C209.973 18.2745 210.39 18.5551 210.871 18.7635C211.352 18.9719 211.857 19.0761 212.386 19.0761C212.915 19.0761 213.42 18.9719 213.901 18.7635C214.382 18.5551 214.799 18.2745 215.152 17.9218C215.505 17.5691 215.777 17.1522 215.969 16.6713C216.178 16.1743 216.282 15.6612 216.282 15.1322C216.282 14.6031 216.178 14.0981 215.969 13.6171C215.777 13.1201 215.505 12.6872 215.152 12.3185C214.799 11.9497 214.382 11.6692 213.901 11.4768C213.42 11.2684 212.915 11.1642 212.386 11.1642ZM230.609 21V19.1723C230.096 19.7655 229.503 20.2385 228.829 20.5912C228.156 20.9439 227.443 21.1202 226.689 21.1202C225.855 21.1202 225.07 20.9679 224.332 20.6633C223.611 20.3587 222.97 19.9258 222.408 19.3647C221.847 18.8196 221.406 18.1783 221.086 17.4408C220.781 16.6873 220.629 15.9017 220.629 15.0841C220.629 14.2664 220.781 13.4889 221.086 12.7514C221.406 11.9978 221.847 11.3405 222.408 10.7794C222.97 10.2183 223.611 9.78538 224.332 9.48077C225.07 9.17615 225.855 9.02384 226.689 9.02384C227.459 9.02384 228.18 9.18417 228.853 9.50481C229.543 9.82546 230.128 10.2744 230.609 10.8515V9.26433H232.773V21H230.609ZM226.689 11.1642C226.16 11.1642 225.647 11.2684 225.15 11.4768C224.669 11.6692 224.252 11.9417 223.899 12.2944C223.547 12.6472 223.266 13.072 223.058 13.569C222.865 14.05 222.769 14.555 222.769 15.0841C222.769 15.6131 222.865 16.1182 223.058 16.5991C223.266 17.0801 223.547 17.4969 223.899 17.8496C224.252 18.2024 224.669 18.4829 225.15 18.6913C225.647 18.8837 226.16 18.9799 226.689 18.9799C227.218 18.9799 227.723 18.8837 228.204 18.6913C228.685 18.4829 229.102 18.2024 229.455 17.8496C229.807 17.4969 230.08 17.0801 230.272 16.5991C230.481 16.1182 230.585 15.6131 230.585 15.0841C230.585 14.555 230.481 14.05 230.272 13.569C230.08 13.072 229.807 12.6472 229.455 12.2944C229.102 11.9417 228.685 11.6692 228.204 11.4768C227.723 11.2684 227.218 11.1642 226.689 11.1642ZM238.779 11.1401V21H236.735V11.1401H234.931V8.97575H236.735V5.00774H238.779V8.97575H240.583V11.1401H238.779Z" fill="#0044C9"/>
<path d="M170.714 21L170.504 21.129L170.576 21.2462H170.714V21ZM163.499 9.26433L163.709 9.13537L163.253 8.39357V9.26433H163.499ZM163.499 21V21.2462H163.745V21H163.499ZM161.359 21H161.112V21.2462H161.359V21ZM161.359 5.00774V4.7615H161.112V5.00774H161.359ZM163.451 5.00774L163.66 4.87836L163.588 4.7615H163.451V5.00774ZM170.906 17.0801L170.696 17.2095L171.152 17.9475V17.0801H170.906ZM170.906 5.00774V4.7615H170.66V5.00774H170.906ZM173.022 5.00774H173.268V4.7615H173.022V5.00774ZM173.022 21V21.2462H173.268V21H173.022ZM170.923 20.871L163.709 9.13537L163.289 9.39329L170.504 21.129L170.923 20.871ZM163.253 9.26433V21H163.745V9.26433H163.253ZM163.499 20.7538H161.359V21.2462H163.499V20.7538ZM161.605 21V5.00774H161.112V21H161.605ZM161.359 5.25399H163.451V4.7615H161.359V5.25399ZM163.241 5.13713L170.696 17.2095L171.115 16.9507L163.66 4.87836L163.241 5.13713ZM171.152 17.0801V5.00774H170.66V17.0801H171.152ZM170.906 5.25399H173.022V4.7615H170.906V5.25399ZM172.776 5.00774V21H173.268V5.00774H172.776ZM173.022 20.7538H170.714V21.2462H173.022V20.7538ZM185.166 21H184.92V21.2462H185.166V21ZM185.166 19.1723H185.412V18.5112L184.98 19.0112L185.166 19.1723ZM183.386 20.5912L183.272 20.373L183.386 20.5912ZM178.889 20.6633L178.793 20.8902L178.795 20.8909L178.889 20.6633ZM176.965 19.3647L177.139 19.1906L177.137 19.1881L176.965 19.3647ZM175.643 17.4408L175.414 17.5331L175.417 17.539L175.643 17.4408ZM175.643 12.7514L175.416 12.6549L175.415 12.6574L175.643 12.7514ZM176.965 10.7794L177.139 10.9535L176.965 10.7794ZM178.889 9.48077L178.795 9.25316L178.793 9.25391L178.889 9.48077ZM183.41 9.50481L183.304 9.72715L183.306 9.72809L183.41 9.50481ZM185.166 10.8515L184.977 11.0092L185.412 11.5317V10.8515H185.166ZM185.166 9.26433V9.01808H184.92V9.26433H185.166ZM187.33 9.26433H187.576V9.01808H187.33V9.26433ZM187.33 21V21.2462H187.576V21H187.33ZM179.707 11.4768L179.798 11.7055L179.802 11.7039L179.707 11.4768ZM178.456 12.2944L178.282 12.1203L178.456 12.2944ZM177.615 13.569L177.387 13.4738L177.386 13.4776L177.615 13.569ZM177.615 16.5991L177.386 16.6906L177.389 16.697L177.615 16.5991ZM178.456 17.8496L178.63 17.6755L178.456 17.8496ZM179.707 18.6913L179.609 18.9175L179.618 18.921L179.707 18.6913ZM182.761 18.6913L182.852 18.9201L182.859 18.9173L182.761 18.6913ZM184.011 17.8496L183.837 17.6755L184.011 17.8496ZM184.829 16.5991L184.603 16.5012L184.6 16.5077L184.829 16.5991ZM184.829 13.569L184.599 13.658L184.603 13.6669L184.829 13.569ZM182.761 11.4768L182.663 11.7028L182.669 11.7054L182.761 11.4768ZM185.412 21V19.1723H184.92V21H185.412ZM184.98 19.0112C184.486 19.5818 183.917 20.0351 183.272 20.373L183.5 20.8093C184.202 20.4418 184.819 19.9492 185.352 19.3334L184.98 19.0112ZM183.272 20.373C182.633 20.7075 181.959 20.874 181.246 20.874V21.3665C182.04 21.3665 182.792 21.1803 183.5 20.8093L183.272 20.373ZM181.246 20.874C180.443 20.874 179.689 20.7275 178.983 20.4357L178.795 20.8909C179.564 21.2084 180.381 21.3665 181.246 21.3665V20.874ZM178.985 20.4365C178.293 20.1444 177.678 19.7296 177.139 19.1906L176.791 19.5388C177.374 20.1221 178.042 20.573 178.793 20.8902L178.985 20.4365ZM177.137 19.1881C176.599 18.666 176.177 18.0515 175.868 17.3426L175.417 17.539C175.75 18.3051 176.209 18.9732 176.794 19.5413L177.137 19.1881ZM175.871 17.3485C175.578 16.6245 175.432 15.8703 175.432 15.0841H174.939C174.939 15.9332 175.098 16.7501 175.414 17.5331L175.871 17.3485ZM175.432 15.0841C175.432 14.2979 175.578 13.5523 175.87 12.8454L175.415 12.6574C175.098 13.4254 174.939 14.235 174.939 15.0841H175.432ZM175.869 12.8478C176.178 12.1223 176.601 11.4916 177.139 10.9535L176.791 10.6053C176.207 11.1894 175.749 11.8733 175.416 12.6549L175.869 12.8478ZM177.139 10.9535C177.678 10.4145 178.293 9.99971 178.985 9.70762L178.793 9.25391C178.042 9.57105 177.374 10.022 176.791 10.6053L177.139 10.9535ZM178.983 9.70836C179.689 9.41661 180.443 9.27009 181.246 9.27009V8.7776C180.381 8.7776 179.564 8.93569 178.795 9.25317L178.983 9.70836ZM181.246 9.27009C181.98 9.27009 182.665 9.42275 183.304 9.72714L183.516 9.28249C182.809 8.94559 182.051 8.7776 181.246 8.7776V9.27009ZM183.306 9.72809C183.963 10.0336 184.519 10.4603 184.977 11.0092L185.355 10.6939C184.85 10.0885 184.236 9.61731 183.514 9.28154L183.306 9.72809ZM185.412 10.8515V9.26433H184.92V10.8515H185.412ZM185.166 9.51057H187.33V9.01808H185.166V9.51057ZM187.084 9.26433V21H187.576V9.26433H187.084ZM187.33 20.7538H185.166V21.2462H187.33V20.7538ZM181.246 10.9179C180.683 10.9179 180.138 11.0289 179.612 11.2497L179.802 11.7039C180.269 11.5079 180.75 11.4104 181.246 11.4104V10.9179ZM179.615 11.2482C179.105 11.4524 178.659 11.7431 178.282 12.1203L178.63 12.4686C178.959 12.1403 179.347 11.8859 179.798 11.7054L179.615 11.2482ZM178.282 12.1203C177.905 12.4974 177.607 12.9497 177.387 13.4738L177.842 13.6642C178.039 13.1943 178.302 12.7969 178.63 12.4686L178.282 12.1203ZM177.386 13.4776C177.182 13.9882 177.08 14.5244 177.08 15.0841H177.572C177.572 14.5856 177.663 14.1117 177.843 13.6605L177.386 13.4776ZM177.08 15.0841C177.08 15.6438 177.182 16.1799 177.386 16.6906L177.843 16.5077C177.663 16.0564 177.572 15.5825 177.572 15.0841H177.08ZM177.389 16.697C177.609 17.205 177.906 17.648 178.282 18.0238L178.63 17.6755C178.301 17.3458 178.037 16.9552 177.84 16.5012L177.389 16.697ZM178.282 18.0238C178.658 18.3995 179.101 18.6972 179.609 18.9173L179.805 18.4654C179.351 18.2687 178.96 18.0052 178.63 17.6755L178.282 18.0238ZM179.618 18.921C180.143 19.1243 180.686 19.2262 181.246 19.2262V18.7337C180.747 18.7337 180.264 18.6432 179.796 18.4617L179.618 18.921ZM181.246 19.2262C181.806 19.2262 182.342 19.1243 182.852 18.92L182.669 18.4627C182.218 18.6432 181.744 18.7337 181.246 18.7337V19.2262ZM182.859 18.9173C183.367 18.6972 183.81 18.3995 184.186 18.0238L183.837 17.6755C183.508 18.0052 183.117 18.2687 182.663 18.4654L182.859 18.9173ZM184.186 18.0238C184.563 17.6466 184.853 17.2013 185.058 16.6906L184.6 16.5077C184.42 16.9589 184.166 17.3473 183.837 17.6755L184.186 18.0238ZM185.055 16.697C185.277 16.1849 185.388 15.6465 185.388 15.0841H184.895C184.895 15.5798 184.798 16.0514 184.603 16.5012L185.055 16.697ZM185.388 15.0841C185.388 14.5216 185.277 13.9833 185.055 13.4711L184.603 13.6669C184.798 14.1167 184.895 14.5884 184.895 15.0841H185.388ZM185.059 13.4801C184.855 12.9534 184.564 12.4989 184.186 12.1203L183.837 12.4686C184.164 12.7954 184.419 13.1906 184.599 13.6579L185.059 13.4801ZM184.186 12.1203C183.808 11.7431 183.363 11.4524 182.852 11.2482L182.669 11.7054C183.121 11.8859 183.509 12.1403 183.837 12.4686L184.186 12.1203ZM182.859 11.2508C182.347 11.0289 181.808 10.9179 181.246 10.9179V11.4104C181.742 11.4104 182.213 11.5078 182.663 11.7027L182.859 11.2508ZM195.8 21V21.2462H195.968L196.029 21.0903L195.8 21ZM193.756 21L193.527 21.0903L193.588 21.2462H193.756V21ZM189.018 8.97575V8.7295H188.657L188.789 9.06602L189.018 8.97575ZM191.303 8.97575L191.532 8.88484L191.47 8.7295H191.303V8.97575ZM194.79 17.7535L194.561 17.8444L194.791 18.4224L195.019 17.8438L194.79 17.7535ZM198.253 8.97575V8.7295H198.085L198.024 8.88538L198.253 8.97575ZM200.537 8.97575L200.767 9.06602L200.899 8.7295H200.537V8.97575ZM195.8 20.7538H193.756V21.2462H195.8V20.7538ZM193.985 20.9097L189.247 8.88548L188.789 9.06602L193.527 21.0903L193.985 20.9097ZM189.018 9.22199H191.303V8.7295H189.018V9.22199ZM191.074 9.06666L194.561 17.8444L195.019 17.6625L191.532 8.88484L191.074 9.06666ZM195.019 17.8438L198.482 9.06612L198.024 8.88538L194.561 17.6631L195.019 17.8438ZM198.253 9.22199H200.537V8.7295H198.253V9.22199ZM200.308 8.88548L195.571 20.9097L196.029 21.0903L200.767 9.06602L200.308 8.88548ZM203.005 6.93162L202.824 7.09918L202.83 7.10587L202.837 7.11207L203.005 6.93162ZM203.005 5.36847L202.831 5.19435V5.19435L203.005 5.36847ZM204.568 5.36847L204.387 5.53603L204.394 5.54271L204.4 5.54892L204.568 5.36847ZM204.568 6.93162L204.394 6.7575L204.568 6.93162ZM202.812 21H202.566V21.2462H202.812V21ZM202.812 8.97575V8.7295H202.566V8.97575H202.812ZM204.832 8.97575H205.079V8.7295H204.832V8.97575ZM204.832 21V21.2462H205.079V21H204.832ZM203.798 6.99801C203.556 6.99801 203.351 6.91756 203.172 6.75118L202.837 7.11207C203.107 7.36253 203.431 7.4905 203.798 7.4905V6.99801ZM203.185 6.76407C203.019 6.58488 202.938 6.3801 202.938 6.13802H202.446C202.446 6.50517 202.574 6.82946 202.824 7.09918L203.185 6.76407ZM202.938 6.13802C202.938 5.89628 203.018 5.70314 203.179 5.54259L202.831 5.19435C202.574 5.45065 202.446 5.77054 202.446 6.13802H202.938ZM203.179 5.54259C203.359 5.36216 203.562 5.27804 203.798 5.27804V4.78555C203.425 4.78555 203.099 4.92588 202.831 5.19435L203.179 5.54259ZM203.798 5.27804C204.034 5.27804 204.225 5.36144 204.387 5.53603L204.748 5.20091C204.494 4.9266 204.172 4.78555 203.798 4.78555V5.27804ZM204.4 5.54892C204.575 5.71104 204.658 5.90231 204.658 6.13802H205.151C205.151 5.76451 205.01 5.44274 204.735 5.18802L204.4 5.54892ZM204.658 6.13802C204.658 6.37433 204.574 6.57706 204.394 6.7575L204.742 7.10575C205.01 6.83728 205.151 6.51095 205.151 6.13802H204.658ZM204.394 6.7575C204.233 6.91804 204.04 6.99801 203.798 6.99801V7.4905C204.166 7.4905 204.486 7.36205 204.742 7.10575L204.394 6.7575ZM203.059 21V8.97575H202.566V21H203.059ZM202.812 9.22199H204.832V8.7295H202.812V9.22199ZM204.586 8.97575V21H205.079V8.97575H204.586ZM204.832 20.7538H202.812V21.2462H204.832V20.7538ZM207.456 23.5732L207.33 23.3616L207.084 23.508L207.266 23.7294L207.456 23.5732ZM209.356 22.4429L209.543 22.2827L209.408 22.1254L209.23 22.2313L209.356 22.4429ZM213.925 23.6453L214.023 23.8713L213.925 23.6453ZM215.176 22.7796L214.998 22.6094L215.176 22.7796ZM215.993 21.505L215.767 21.4071L215.765 21.4136L215.993 21.505ZM216.306 19.4128H216.552V18.7683L216.123 19.2486L216.306 19.4128ZM210.029 20.7355L209.923 20.9577L209.929 20.9603L210.029 20.7355ZM208.106 19.3166L208.287 19.15L208.106 19.3166ZM206.807 17.2965L206.579 17.3888L206.58 17.3929L206.807 17.2965ZM206.807 12.6552L206.581 12.557L206.58 12.5594L206.807 12.6552ZM208.13 10.7072L207.958 10.5306L207.956 10.5331L208.13 10.7072ZM210.054 9.43267L209.96 9.20507L209.958 9.20582L210.054 9.43267ZM214.743 9.55291L214.863 9.33789L214.743 9.55291ZM216.306 10.8515L216.108 10.9972L216.552 11.6037V10.8515H216.306ZM216.306 9.19218V8.94594H216.06V9.19218H216.306ZM218.47 9.19218H218.717V8.94594H218.47V9.19218ZM217.99 22.3467L217.764 22.2485L217.762 22.2527L217.99 22.3467ZM216.691 24.3187L216.514 24.147L216.514 24.1471L216.691 24.3187ZM214.743 25.6414L214.647 25.4148L214.645 25.4155L214.743 25.6414ZM210.871 11.4768L210.963 11.7055L210.969 11.7027L210.871 11.4768ZM209.621 12.3185L209.443 12.1483V12.1483L209.621 12.3185ZM208.779 13.6171L209.005 13.715L209.006 13.7123L208.779 13.6171ZM208.779 16.6713L208.552 16.7665L208.553 16.7692L208.779 16.6713ZM209.621 17.9218L209.447 18.0959L209.621 17.9218ZM210.871 18.7635L210.773 18.9894L210.871 18.7635ZM213.901 18.7635L213.999 18.9894L213.901 18.7635ZM215.969 16.6713L215.742 16.576L215.741 16.5798L215.969 16.6713ZM215.969 13.6171L215.74 13.7061L215.744 13.715L215.969 13.6171ZM215.152 12.3185L215.33 12.1483V12.1483L215.152 12.3185ZM213.901 11.4768L213.803 11.7028L213.81 11.7054L213.901 11.4768ZM212.41 25.8761C210.588 25.8761 209.003 25.0691 207.647 23.417L207.266 23.7294C208.7 25.4761 210.417 26.3686 212.41 26.3686V25.8761ZM207.582 23.7848L209.482 22.6545L209.23 22.2313L207.33 23.3616L207.582 23.7848ZM209.169 22.6032C210.075 23.6595 211.158 24.2042 212.41 24.2042V23.7117C211.322 23.7117 210.369 23.2464 209.543 22.2827L209.169 22.6032ZM212.41 24.2042C212.973 24.2042 213.511 24.0932 214.023 23.8713L213.827 23.4194C213.378 23.6143 212.906 23.7117 212.41 23.7117V24.2042ZM214.023 23.8713C214.533 23.6502 214.978 23.3429 215.354 22.9498L214.998 22.6094C214.669 22.9537 214.279 23.2237 213.827 23.4194L214.023 23.8713ZM215.354 22.9498C215.729 22.5579 216.018 22.1062 216.222 21.5965L215.765 21.4136C215.584 21.8657 215.328 22.2638 214.998 22.6094L215.354 22.9498ZM216.219 21.6029C216.441 21.0908 216.552 20.5524 216.552 19.99H216.06C216.06 20.4857 215.962 20.9573 215.768 21.4071L216.219 21.6029ZM216.552 19.99V19.4128H216.06V19.99H216.552ZM216.123 19.2486C215.075 20.4192 213.834 20.9942 212.386 20.9942V21.4867C213.985 21.4867 215.357 20.8433 216.49 19.577L216.123 19.2486ZM212.386 20.9942C211.604 20.9942 210.852 20.8333 210.13 20.5106L209.929 20.9603C210.714 21.311 211.534 21.4867 212.386 21.4867V20.9942ZM210.136 20.5133C209.426 20.174 208.81 19.7197 208.287 19.15L207.924 19.4832C208.491 20.0999 209.158 20.5916 209.923 20.9576L210.136 20.5133ZM208.287 19.15C207.761 18.5778 207.343 17.9283 207.034 17.2001L206.58 17.3929C206.912 18.1718 207.36 18.869 207.924 19.4832L208.287 19.15ZM207.035 17.2042C206.742 16.4796 206.596 15.7334 206.596 14.9638H206.104C206.104 15.7975 206.262 16.6064 206.579 17.3888L207.035 17.2042ZM206.596 14.9638C206.596 14.1776 206.743 13.4408 207.034 12.751L206.58 12.5594C206.262 13.3125 206.104 14.1148 206.104 14.9638H206.596ZM207.033 12.7534C207.341 12.0438 207.765 11.4204 208.304 10.8814L207.956 10.5331C207.372 11.1164 206.914 11.7916 206.581 12.557L207.033 12.7534ZM208.301 10.8839C208.84 10.3601 209.456 9.95226 210.149 9.65952L209.958 9.20582C209.208 9.52231 208.541 9.96419 207.958 10.5306L208.301 10.8839ZM210.148 9.66026C210.854 9.36827 211.6 9.22199 212.386 9.22199V8.7295C211.537 8.7295 210.728 8.88784 209.96 9.20507L210.148 9.66026ZM212.386 9.22199C213.231 9.22199 213.974 9.40594 214.623 9.76793L214.863 9.33789C214.133 8.93033 213.305 8.7295 212.386 8.7295V9.22199ZM214.623 9.76793C215.291 10.1408 215.781 10.5523 216.108 10.9972L216.505 10.7059C216.125 10.1888 215.574 9.73458 214.863 9.33789L214.623 9.76793ZM216.552 10.8515V9.19218H216.06V10.8515H216.552ZM216.306 9.43843H218.47V8.94594H216.306V9.43843ZM218.224 9.19218V19.99H218.717V9.19218H218.224ZM218.224 19.99C218.224 20.7911 218.07 21.5432 217.764 22.2485L218.215 22.4449C218.55 21.6753 218.717 20.8562 218.717 19.99H218.224ZM217.762 22.2527C217.469 22.9611 217.054 23.5921 216.514 24.147L216.867 24.4903C217.45 23.891 217.9 23.2074 218.217 22.4407L217.762 22.2527ZM216.514 24.1471C215.993 24.6837 215.371 25.1063 214.647 25.4148L214.839 25.8679C215.622 25.5351 216.299 25.076 216.868 24.4903L216.514 24.1471ZM214.645 25.4155C213.939 25.7225 213.195 25.8761 212.41 25.8761V26.3686C213.261 26.3686 214.072 26.2015 214.841 25.8672L214.645 25.4155ZM212.386 10.9179C211.824 10.9179 211.285 11.0289 210.773 11.2508L210.969 11.7027C211.419 11.5078 211.891 11.4104 212.386 11.4104V10.9179ZM210.78 11.2482C210.267 11.4534 209.82 11.7537 209.443 12.1483L209.799 12.4887C210.127 12.1458 210.514 11.8849 210.963 11.7054L210.78 11.2482ZM209.443 12.1483C209.068 12.54 208.771 12.9987 208.552 13.5219L209.006 13.7123C209.203 13.2415 209.468 12.8345 209.799 12.4887L209.443 12.1483ZM208.553 13.5192C208.331 14.0314 208.22 14.5697 208.22 15.1322H208.713C208.713 14.6365 208.81 14.1648 209.005 13.715L208.553 13.5192ZM208.22 15.1322C208.22 15.6946 208.331 16.2399 208.552 16.7665L209.006 16.576C208.81 16.1086 208.713 15.6279 208.713 15.1322H208.22ZM208.553 16.7692C208.773 17.2771 209.071 17.7202 209.447 18.0959L209.795 17.7477C209.465 17.418 209.202 17.0274 209.005 16.5734L208.553 16.7692ZM209.447 18.0959C209.822 18.4716 210.265 18.7693 210.773 18.9894L210.969 18.5375C210.515 18.3408 210.124 18.0774 209.795 17.7477L209.447 18.0959ZM210.773 18.9894C211.285 19.2114 211.824 19.3224 212.386 19.3224V18.8299C211.891 18.8299 211.419 18.7324 210.969 18.5375L210.773 18.9894ZM212.386 19.3224C212.949 19.3224 213.487 19.2114 213.999 18.9894L213.803 18.5375C213.354 18.7324 212.882 18.8299 212.386 18.8299V19.3224ZM213.999 18.9894C214.507 18.7693 214.95 18.4716 215.326 18.0959L214.978 17.7477C214.648 18.0774 214.257 18.3408 213.803 18.5375L213.999 18.9894ZM215.326 18.0959C215.703 17.7187 215.994 17.2734 216.198 16.7627L215.741 16.5798C215.56 17.031 215.306 17.4194 214.978 17.7477L215.326 18.0959ZM216.197 16.7665C216.417 16.2399 216.528 15.6946 216.528 15.1322H216.036C216.036 15.6279 215.938 16.1086 215.742 16.576L216.197 16.7665ZM216.528 15.1322C216.528 14.5697 216.417 14.0314 216.195 13.5192L215.744 13.715C215.938 14.1648 216.036 14.6365 216.036 15.1322H216.528ZM216.199 13.5282C215.996 13.0023 215.706 12.5415 215.33 12.1483L214.974 12.4887C215.303 12.833 215.559 13.2379 215.74 13.706L216.199 13.5282ZM215.33 12.1483C214.952 11.7537 214.506 11.4534 213.993 11.2482L213.81 11.7054C214.259 11.8849 214.646 12.1458 214.974 12.4887L215.33 12.1483ZM213.999 11.2508C213.487 11.0289 212.949 10.9179 212.386 10.9179V11.4104C212.882 11.4104 213.354 11.5078 213.803 11.7027L213.999 11.2508ZM230.609 21H230.363V21.2462H230.609V21ZM230.609 19.1723H230.855V18.5112L230.423 19.0112L230.609 19.1723ZM228.829 20.5912L228.715 20.373L228.829 20.5912ZM224.332 20.6633L224.237 20.8902L224.238 20.8909L224.332 20.6633ZM222.408 19.3647L222.583 19.1906L222.58 19.1881L222.408 19.3647ZM221.086 17.4408L220.857 17.5331L220.86 17.539L221.086 17.4408ZM221.086 12.7514L220.859 12.6549L220.858 12.6574L221.086 12.7514ZM222.408 10.7794L222.583 10.9535L222.408 10.7794ZM224.332 9.48077L224.238 9.25316L224.237 9.25391L224.332 9.48077ZM228.853 9.50481L228.748 9.72715L228.75 9.72809L228.853 9.50481ZM230.609 10.8515L230.42 11.0092L230.855 11.5317V10.8515H230.609ZM230.609 9.26433V9.01808H230.363V9.26433H230.609ZM232.773 9.26433H233.02V9.01808H232.773V9.26433ZM232.773 21V21.2462H233.02V21H232.773ZM225.15 11.4768L225.241 11.7055L225.245 11.7039L225.15 11.4768ZM223.899 12.2944L223.725 12.1203L223.899 12.2944ZM223.058 13.569L222.831 13.4738L222.829 13.4776L223.058 13.569ZM223.058 16.5991L222.829 16.6906L222.832 16.697L223.058 16.5991ZM223.899 17.8496L224.074 17.6755L223.899 17.8496ZM225.15 18.6913L225.052 18.9175L225.061 18.921L225.15 18.6913ZM228.204 18.6913L228.296 18.9201L228.302 18.9173L228.204 18.6913ZM229.455 17.8496L229.281 17.6755L229.455 17.8496ZM230.272 16.5991L230.046 16.5012L230.044 16.5077L230.272 16.5991ZM230.272 13.569L230.042 13.658L230.046 13.6669L230.272 13.569ZM228.204 11.4768L228.106 11.7028L228.113 11.7054L228.204 11.4768ZM230.855 21V19.1723H230.363V21H230.855ZM230.423 19.0112C229.929 19.5818 229.36 20.0351 228.715 20.373L228.944 20.8093C229.645 20.4418 230.263 19.9492 230.795 19.3334L230.423 19.0112ZM228.715 20.373C228.077 20.7075 227.402 20.874 226.689 20.874V21.3665C227.483 21.3665 228.235 21.1803 228.944 20.8093L228.715 20.373ZM226.689 20.874C225.886 20.874 225.133 20.7275 224.426 20.4357L224.238 20.8909C225.007 21.2084 225.825 21.3665 226.689 21.3665V20.874ZM224.428 20.4365C223.736 20.1444 223.122 19.7296 222.583 19.1906L222.234 19.5388C222.818 20.1221 223.485 20.573 224.237 20.8902L224.428 20.4365ZM222.58 19.1881C222.043 18.666 221.62 18.0515 221.312 17.3426L220.86 17.539C221.193 18.3051 221.652 18.9732 222.237 19.5413L222.58 19.1881ZM221.314 17.3485C221.021 16.6245 220.875 15.8703 220.875 15.0841H220.383C220.383 15.9332 220.541 16.7501 220.857 17.5331L221.314 17.3485ZM220.875 15.0841C220.875 14.2979 221.021 13.5523 221.313 12.8454L220.858 12.6574C220.541 13.4254 220.383 14.235 220.383 15.0841H220.875ZM221.312 12.8478C221.621 12.1223 222.044 11.4916 222.583 10.9535L222.234 10.6053C221.65 11.1894 221.192 11.8733 220.859 12.6549L221.312 12.8478ZM222.583 10.9535C223.122 10.4145 223.736 9.99971 224.428 9.70762L224.237 9.25391C223.485 9.57105 222.818 10.022 222.234 10.6053L222.583 10.9535ZM224.426 9.70836C225.133 9.41661 225.886 9.27009 226.689 9.27009V8.7776C225.825 8.7776 225.007 8.93569 224.238 9.25317L224.426 9.70836ZM226.689 9.27009C227.423 9.27009 228.108 9.42275 228.748 9.72714L228.959 9.28249C228.252 8.94559 227.494 8.7776 226.689 8.7776V9.27009ZM228.75 9.72809C229.406 10.0336 229.962 10.4603 230.42 11.0092L230.798 10.6939C230.294 10.0885 229.679 9.61731 228.957 9.28154L228.75 9.72809ZM230.855 10.8515V9.26433H230.363V10.8515H230.855ZM230.609 9.51057H232.773V9.01808H230.609V9.51057ZM232.527 9.26433V21H233.02V9.26433H232.527ZM232.773 20.7538H230.609V21.2462H232.773V20.7538ZM226.689 10.9179C226.127 10.9179 225.581 11.0289 225.055 11.2497L225.245 11.7039C225.713 11.5079 226.193 11.4104 226.689 11.4104V10.9179ZM225.059 11.2482C224.548 11.4524 224.103 11.7431 223.725 12.1203L224.074 12.4686C224.402 12.1403 224.79 11.8859 225.241 11.7054L225.059 11.2482ZM223.725 12.1203C223.348 12.4974 223.05 12.9497 222.831 13.4738L223.285 13.6642C223.482 13.1943 223.745 12.7969 224.074 12.4686L223.725 12.1203ZM222.829 13.4776C222.625 13.9882 222.523 14.5244 222.523 15.0841H223.015C223.015 14.5856 223.106 14.1117 223.286 13.6605L222.829 13.4776ZM222.523 15.0841C222.523 15.6438 222.625 16.1799 222.829 16.6906L223.286 16.5077C223.106 16.0564 223.015 15.5825 223.015 15.0841H222.523ZM222.832 16.697C223.052 17.205 223.35 17.648 223.725 18.0238L224.074 17.6755C223.744 17.3458 223.48 16.9552 223.284 16.5012L222.832 16.697ZM223.725 18.0238C224.101 18.3995 224.544 18.6972 225.052 18.9173L225.248 18.4654C224.794 18.2687 224.403 18.0052 224.074 17.6755L223.725 18.0238ZM225.061 18.921C225.586 19.1243 226.129 19.2262 226.689 19.2262V18.7337C226.191 18.7337 225.708 18.6432 225.239 18.4617L225.061 18.921ZM226.689 19.2262C227.249 19.2262 227.785 19.1243 228.296 18.92L228.113 18.4627C227.661 18.6432 227.187 18.7337 226.689 18.7337V19.2262ZM228.302 18.9173C228.81 18.6972 229.253 18.3995 229.629 18.0238L229.281 17.6755C228.951 18.0052 228.56 18.2687 228.106 18.4654L228.302 18.9173ZM229.629 18.0238C230.006 17.6466 230.297 17.2013 230.501 16.6906L230.044 16.5077C229.863 16.9589 229.609 17.3473 229.281 17.6755L229.629 18.0238ZM230.498 16.697C230.72 16.1849 230.831 15.6465 230.831 15.0841H230.339C230.339 15.5798 230.241 16.0514 230.046 16.5012L230.498 16.697ZM230.831 15.0841C230.831 14.5216 230.72 13.9833 230.498 13.4711L230.046 13.6669C230.241 14.1167 230.339 14.5884 230.339 15.0841H230.831ZM230.502 13.4801C230.298 12.9534 230.007 12.4989 229.629 12.1203L229.281 12.4686C229.607 12.7954 229.862 13.1906 230.043 13.6579L230.502 13.4801ZM229.629 12.1203C229.252 11.7431 228.806 11.4524 228.296 11.2482L228.113 11.7054C228.564 11.8859 228.952 12.1403 229.281 12.4686L229.629 12.1203ZM228.302 11.2508C227.79 11.0289 227.251 10.9179 226.689 10.9179V11.4104C227.185 11.4104 227.656 11.5078 228.106 11.7027L228.302 11.2508ZM238.779 11.1401V10.8939H238.533V11.1401H238.779ZM238.779 21V21.2462H239.025V21H238.779ZM236.735 21H236.489V21.2462H236.735V21ZM236.735 11.1401H236.981V10.8939H236.735V11.1401ZM234.931 11.1401H234.685V11.3864H234.931V11.1401ZM234.931 8.97575V8.7295H234.685V8.97575H234.931ZM236.735 8.97575V9.22199H236.981V8.97575H236.735ZM236.735 5.00774V4.7615H236.489V5.00774H236.735ZM238.779 5.00774H239.025V4.7615H238.779V5.00774ZM238.779 8.97575H238.533V9.22199H238.779V8.97575ZM240.583 8.97575H240.829V8.7295H240.583V8.97575ZM240.583 11.1401V11.3864H240.829V11.1401H240.583ZM238.533 11.1401V21H239.025V11.1401H238.533ZM238.779 20.7538H236.735V21.2462H238.779V20.7538ZM236.981 21V11.1401H236.489V21H236.981ZM236.735 10.8939H234.931V11.3864H236.735V10.8939ZM235.177 11.1401V8.97575H234.685V11.1401H235.177ZM234.931 9.22199H236.735V8.7295H234.931V9.22199ZM236.981 8.97575V5.00774H236.489V8.97575H236.981ZM236.735 5.25399H238.779V4.7615H236.735V5.25399ZM238.533 5.00774V8.97575H239.025V5.00774H238.533ZM238.779 9.22199H240.583V8.7295H238.779V9.22199ZM240.336 8.97575V11.1401H240.829V8.97575H240.336ZM240.583 10.8939H238.779V11.3864H240.583V10.8939Z" fill="#0044C9" mask="url(#path-10-outside-1_2382_2130)"/>
<mask id="path-12-outside-2_2382_2130" maskUnits="userSpaceOnUse" x="254.875" y="8" width="9" height="14" fill="black">
<rect fill="white" x="254.875" y="8" width="9" height="14"/>
<path d="M261.44 11.2844C261.055 11.108 260.711 11.0199 260.406 11.0199C259.765 11.0199 259.236 11.2443 258.819 11.6932C258.37 12.1742 258.146 12.7273 258.146 13.3526V21H256.077V13.3526C256.077 12.4868 256.294 11.6932 256.727 10.9718C257.176 10.2503 257.785 9.68919 258.554 9.28838C259.132 9.01583 259.749 8.87955 260.406 8.87955C260.935 8.87955 261.44 8.97575 261.921 9.16814C262.402 9.36052 262.907 9.67315 263.436 10.106L261.44 11.2844Z"/>
</mask>
<path d="M261.44 11.2844C261.055 11.108 260.711 11.0199 260.406 11.0199C259.765 11.0199 259.236 11.2443 258.819 11.6932C258.37 12.1742 258.146 12.7273 258.146 13.3526V21H256.077V13.3526C256.077 12.4868 256.294 11.6932 256.727 10.9718C257.176 10.2503 257.785 9.68919 258.554 9.28838C259.132 9.01583 259.749 8.87955 260.406 8.87955C260.935 8.87955 261.44 8.97575 261.921 9.16814C262.402 9.36052 262.907 9.67315 263.436 10.106L261.44 11.2844Z" fill="#0044C9"/>
<path d="M261.44 11.2844L261.338 11.5083L261.455 11.5619L261.565 11.4965L261.44 11.2844ZM258.819 11.6932L258.999 11.8612L258.999 11.8608L258.819 11.6932ZM258.146 21V21.2462H258.392V21H258.146ZM256.077 21H255.831V21.2462H256.077V21ZM256.727 10.9718L256.518 10.8417L256.516 10.8451L256.727 10.9718ZM258.554 9.28838L258.449 9.06554L258.441 9.06998L258.554 9.28838ZM261.921 9.16814L262.013 8.9395L261.921 9.16814ZM263.436 10.106L263.561 10.3181L263.865 10.1388L263.592 9.91544L263.436 10.106ZM261.543 11.0606C261.138 10.8748 260.757 10.7736 260.406 10.7736V11.2661C260.664 11.2661 260.973 11.3413 261.338 11.5083L261.543 11.0606ZM260.406 10.7736C259.7 10.7736 259.104 11.024 258.639 11.5257L258.999 11.8608C259.367 11.4646 259.83 11.2661 260.406 11.2661V10.7736ZM258.639 11.5252C258.15 12.0492 257.899 12.6614 257.899 13.3526H258.392C258.392 12.7932 258.59 12.2992 258.999 11.8612L258.639 11.5252ZM257.899 13.3526V21H258.392V13.3526H257.899ZM258.146 20.7538H256.077V21.2462H258.146V20.7538ZM256.324 21V13.3526H255.831V21H256.324ZM256.324 13.3526C256.324 12.5301 256.529 11.7805 256.938 11.0985L256.516 10.8451C256.059 11.606 255.831 12.4436 255.831 13.3526H256.324ZM256.936 11.1019C257.361 10.4187 257.937 9.88767 258.668 9.50678L258.441 9.06998C257.633 9.49071 256.99 10.082 256.518 10.8417L256.936 11.1019ZM258.66 9.51105C259.203 9.25449 259.784 9.1258 260.406 9.1258V8.63331C259.714 8.63331 259.06 8.77716 258.449 9.06571L258.66 9.51105ZM260.406 9.1258C260.905 9.1258 261.379 9.21627 261.83 9.39677L262.013 8.9395C261.502 8.73523 260.966 8.63331 260.406 8.63331V9.1258ZM261.83 9.39677C262.281 9.5774 262.765 9.87487 263.28 10.2966L263.592 9.91544C263.05 9.47144 262.523 9.14365 262.013 8.9395L261.83 9.39677ZM263.311 9.89398L261.315 11.0724L261.565 11.4965L263.561 10.3181L263.311 9.89398Z" fill="#0044C9" mask="url(#path-12-outside-2_2382_2130)"/>
<mask id="path-14-outside-3_2382_2130" maskUnits="userSpaceOnUse" x="44.0078" y="4" width="115" height="18" fill="black">
<rect fill="white" x="44.0078" y="4" width="115" height="18"/>
<path d="M49.8997 4.9837C50.7975 4.99973 51.5831 5.20815 52.2564 5.60896C52.9298 6.00977 53.4428 6.54685 53.7956 7.22021C54.1643 7.89356 54.3487 8.6551 54.3487 9.50481C54.3487 10.1301 54.2284 10.7233 53.9879 11.2844C53.7635 11.8295 53.4509 12.3185 53.0501 12.7514C53.6272 13.1842 54.0761 13.7213 54.3968 14.3626C54.7334 15.0039 54.9018 15.7093 54.9018 16.4789C54.9018 17.2965 54.7014 18.0501 54.3006 18.7394C53.8998 19.4288 53.3627 19.9819 52.6893 20.3988C52.016 20.7996 51.2705 21 50.4528 21H45.2102V4.9837H49.8997ZM47.3265 7.14806V11.9097H49.8997C50.557 11.9097 51.1101 11.6772 51.559 11.2123C52.0079 10.7473 52.2324 10.1782 52.2324 9.50481C52.2324 8.83146 52.0079 8.27032 51.559 7.82142C51.1262 7.37251 50.5731 7.14806 49.8997 7.14806H47.3265ZM47.3265 14.074V18.8356H50.4528C51.1101 18.8356 51.6633 18.6112 52.1122 18.1623C52.5611 17.6973 52.7855 17.1362 52.7855 16.4789C52.7855 15.8055 52.5611 15.2364 52.1122 14.7714C51.6633 14.3065 51.1101 14.074 50.4528 14.074H47.3265ZM64.5011 21V13.6171C64.5011 12.8636 64.2365 12.2223 63.7075 11.6932C63.467 11.4527 63.1784 11.2604 62.8417 11.1161C62.5211 10.9718 62.1924 10.8996 61.8557 10.8996C61.1343 10.8996 60.509 11.1642 59.98 11.6932C59.4509 12.2223 59.1864 12.8636 59.1864 13.6171V21H57.0701V4.95965H59.1864V9.81744C59.9559 9.09599 60.8457 8.73526 61.8557 8.73526C62.497 8.73526 63.1063 8.86352 63.6834 9.12004C64.2606 9.36052 64.7736 9.70522 65.2225 10.1541C65.6554 10.603 65.9921 11.1321 66.2326 11.7413C66.4891 12.3345 66.6174 12.9598 66.6174 13.6171V21H64.5011ZM78.7635 21V19.1723C78.2505 19.7655 77.6573 20.2385 76.9839 20.5912C76.3106 20.9439 75.5972 21.1202 74.8436 21.1202C74.01 21.1202 73.2244 20.9679 72.4869 20.6633C71.7654 20.3587 71.1241 19.9258 70.563 19.3647C70.0019 18.8196 69.561 18.1783 69.2403 17.4408C68.9357 16.6873 68.7834 15.9017 68.7834 15.0841C68.7834 14.2664 68.9357 13.4889 69.2403 12.7514C69.561 11.9978 70.0019 11.3405 70.563 10.7794C71.1241 10.2183 71.7654 9.78538 72.4869 9.48077C73.2244 9.17615 74.01 9.02384 74.8436 9.02384C75.6132 9.02384 76.3346 9.18417 77.008 9.50481C77.6974 9.82546 78.2826 10.2744 78.7635 10.8515V9.26433H80.9279V21H78.7635ZM74.8436 11.1642C74.3146 11.1642 73.8015 11.2684 73.3045 11.4768C72.8236 11.6692 72.4067 11.9417 72.054 12.2944C71.7013 12.6472 71.4207 13.072 71.2123 13.569C71.0199 14.05 70.9237 14.555 70.9237 15.0841C70.9237 15.6131 71.0199 16.1182 71.2123 16.5991C71.4207 17.0801 71.7013 17.4969 72.054 17.8496C72.4067 18.2024 72.8236 18.4829 73.3045 18.6913C73.8015 18.8837 74.3146 18.9799 74.8436 18.9799C75.3727 18.9799 75.8777 18.8837 76.3587 18.6913C76.8397 18.4829 77.2565 18.2024 77.6092 17.8496C77.9619 17.4969 78.2345 17.0801 78.4269 16.5991C78.6353 16.1182 78.7395 15.6131 78.7395 15.0841C78.7395 14.555 78.6353 14.05 78.4269 13.569C78.2345 13.072 77.9619 12.6472 77.6092 12.2944C77.2565 11.9417 76.8397 11.6692 76.3587 11.4768C75.8777 11.2684 75.3727 11.1642 74.8436 11.1642ZM88.689 11.2844C88.3042 11.108 87.9595 11.0199 87.6549 11.0199C87.0136 11.0199 86.4845 11.2443 86.0677 11.6932C85.6188 12.1742 85.3943 12.7273 85.3943 13.3526V21H83.3262V13.3526C83.3262 12.4868 83.5426 11.6932 83.9755 10.9718C84.4244 10.2503 85.0336 9.68919 85.8032 9.28838C86.3803 9.01583 86.9976 8.87955 87.6549 8.87955C88.184 8.87955 88.689 8.97575 89.17 9.16814C89.6509 9.36052 90.156 9.67315 90.685 10.106L88.689 11.2844ZM100.44 21V19.1723C99.927 19.7655 99.3338 20.2385 98.6605 20.5912C97.9871 20.9439 97.2737 21.1202 96.5202 21.1202C95.6865 21.1202 94.9009 20.9679 94.1634 20.6633C93.442 20.3587 92.8007 19.9258 92.2395 19.3647C91.6784 18.8196 91.2375 18.1783 90.9169 17.4408C90.6122 16.6873 90.4599 15.9017 90.4599 15.0841C90.4599 14.2664 90.6122 13.4889 90.9169 12.7514C91.2375 11.9978 91.6784 11.3405 92.2395 10.7794C92.8007 10.2183 93.442 9.78538 94.1634 9.48077C94.9009 9.17615 95.6865 9.02384 96.5202 9.02384C97.2897 9.02384 98.0112 9.18417 98.6845 9.50481C99.3739 9.82546 99.9591 10.2744 100.44 10.8515V9.26433H102.604V21H100.44ZM96.5202 11.1642C95.9911 11.1642 95.4781 11.2684 94.9811 11.4768C94.5001 11.6692 94.0832 11.9417 93.7305 12.2944C93.3778 12.6472 93.0973 13.072 92.8888 13.569C92.6965 14.05 92.6003 14.555 92.6003 15.0841C92.6003 15.6131 92.6965 16.1182 92.8888 16.5991C93.0973 17.0801 93.3778 17.4969 93.7305 17.8496C94.0832 18.2024 94.5001 18.4829 94.9811 18.6913C95.4781 18.8837 95.9911 18.9799 96.5202 18.9799C97.0492 18.9799 97.5543 18.8837 98.0352 18.6913C98.5162 18.4829 98.933 18.2024 99.2857 17.8496C99.6385 17.4969 99.911 17.0801 100.103 16.5991C100.312 16.1182 100.416 15.6131 100.416 15.0841C100.416 14.555 100.312 14.05 100.103 13.569C99.911 13.072 99.6385 12.6472 99.2857 12.2944C98.933 11.9417 98.5162 11.6692 98.0352 11.4768C97.5543 11.2684 97.0492 11.1642 96.5202 11.1642ZM108.61 11.1401V21H106.566V11.1401H104.762V8.97575H106.566V5.00774H108.61V8.97575H110.414V11.1401H108.61ZM127.186 21H125.045L122.568 14.1943L120.188 21H118.023L112.228 4.9837H114.56L119.081 17.513L121.39 10.9477L119.226 4.9837H121.558L123.675 10.8515L126.104 17.513L130.48 4.9837H132.813L127.186 21ZM134.525 15.9017C134.525 16.2865 134.661 16.6873 134.934 17.1041C135.222 17.521 135.551 17.8737 135.92 18.1623C136.593 18.6913 137.378 18.9559 138.276 18.9559C139.703 18.9559 140.865 18.2665 141.763 16.8877L143.591 17.9699C142.966 18.9799 142.196 19.7575 141.282 20.3026C140.368 20.8477 139.366 21.1202 138.276 21.1202C137.459 21.1202 136.681 20.9679 135.944 20.6633C135.206 20.3427 134.557 19.9018 133.996 19.3407C133.434 18.7795 132.994 18.1302 132.673 17.3927C132.368 16.6552 132.216 15.8777 132.216 15.06C132.216 14.2424 132.368 13.4648 132.673 12.7273C132.994 11.9738 133.434 11.3165 133.996 10.7553C134.541 10.1942 135.182 9.76133 135.92 9.45672C136.673 9.1521 137.459 8.9998 138.276 8.9998C139.094 8.9998 139.871 9.1521 140.609 9.45672C141.362 9.76133 142.012 10.1942 142.557 10.7553C143.743 11.9738 144.336 13.3846 144.336 14.9879C144.336 15.2765 144.312 15.5811 144.264 15.9017H134.525ZM138.276 10.9718C137.619 10.9718 137.002 11.1161 136.425 11.4046C135.847 11.6932 135.382 12.078 135.03 12.559C134.693 13.0239 134.525 13.5209 134.525 14.05H142.028C142.028 13.5209 141.851 13.0239 141.499 12.559C141.162 12.078 140.705 11.6932 140.128 11.4046C139.551 11.1161 138.934 10.9718 138.276 10.9718ZM152.609 21.1202C151.855 21.1202 151.126 20.9439 150.42 20.5912C149.731 20.2385 149.13 19.7575 148.617 19.1483V21H146.5V5.03179H148.617V10.7072C148.969 10.2102 149.49 9.76935 150.18 9.38457C150.885 8.9998 151.695 8.80741 152.609 8.80741C153.426 8.80741 154.212 8.96773 154.966 9.28838C155.719 9.60903 156.368 10.0499 156.913 10.611C157.475 11.1882 157.907 11.8536 158.212 12.6071C158.533 13.3446 158.693 14.1301 158.693 14.9638C158.693 15.7975 158.533 16.5911 158.212 17.3446C157.907 18.0821 157.475 18.7394 156.913 19.3166C156.368 19.8777 155.719 20.3186 154.966 20.6393C154.212 20.9599 153.426 21.1202 152.609 21.1202ZM152.609 10.9958C152.08 10.9958 151.567 11.1 151.07 11.3085C150.589 11.5008 150.172 11.7814 149.819 12.1501C149.466 12.5189 149.186 12.9518 148.977 13.4488C148.769 13.9297 148.665 14.4348 148.665 14.9638C148.665 16.038 149.05 16.9759 149.819 17.7775C150.172 18.1462 150.589 18.4348 151.07 18.6432C151.567 18.8517 152.08 18.9559 152.609 18.9559C153.138 18.9559 153.643 18.8517 154.124 18.6432C154.605 18.4348 155.022 18.1462 155.374 17.7775C156.144 16.9759 156.529 16.038 156.529 14.9638C156.529 14.4348 156.424 13.9297 156.216 13.4488C156.008 12.9518 155.727 12.5189 155.374 12.1501C155.022 11.7814 154.605 11.5008 154.124 11.3085C153.643 11.1 153.138 10.9958 152.609 10.9958Z"/>
</mask>
<path d="M49.8997 4.9837C50.7975 4.99973 51.5831 5.20815 52.2564 5.60896C52.9298 6.00977 53.4428 6.54685 53.7956 7.22021C54.1643 7.89356 54.3487 8.6551 54.3487 9.50481C54.3487 10.1301 54.2284 10.7233 53.9879 11.2844C53.7635 11.8295 53.4509 12.3185 53.0501 12.7514C53.6272 13.1842 54.0761 13.7213 54.3968 14.3626C54.7334 15.0039 54.9018 15.7093 54.9018 16.4789C54.9018 17.2965 54.7014 18.0501 54.3006 18.7394C53.8998 19.4288 53.3627 19.9819 52.6893 20.3988C52.016 20.7996 51.2705 21 50.4528 21H45.2102V4.9837H49.8997ZM47.3265 7.14806V11.9097H49.8997C50.557 11.9097 51.1101 11.6772 51.559 11.2123C52.0079 10.7473 52.2324 10.1782 52.2324 9.50481C52.2324 8.83146 52.0079 8.27032 51.559 7.82142C51.1262 7.37251 50.5731 7.14806 49.8997 7.14806H47.3265ZM47.3265 14.074V18.8356H50.4528C51.1101 18.8356 51.6633 18.6112 52.1122 18.1623C52.5611 17.6973 52.7855 17.1362 52.7855 16.4789C52.7855 15.8055 52.5611 15.2364 52.1122 14.7714C51.6633 14.3065 51.1101 14.074 50.4528 14.074H47.3265ZM64.5011 21V13.6171C64.5011 12.8636 64.2365 12.2223 63.7075 11.6932C63.467 11.4527 63.1784 11.2604 62.8417 11.1161C62.5211 10.9718 62.1924 10.8996 61.8557 10.8996C61.1343 10.8996 60.509 11.1642 59.98 11.6932C59.4509 12.2223 59.1864 12.8636 59.1864 13.6171V21H57.0701V4.95965H59.1864V9.81744C59.9559 9.09599 60.8457 8.73526 61.8557 8.73526C62.497 8.73526 63.1063 8.86352 63.6834 9.12004C64.2606 9.36052 64.7736 9.70522 65.2225 10.1541C65.6554 10.603 65.9921 11.1321 66.2326 11.7413C66.4891 12.3345 66.6174 12.9598 66.6174 13.6171V21H64.5011ZM78.7635 21V19.1723C78.2505 19.7655 77.6573 20.2385 76.9839 20.5912C76.3106 20.9439 75.5972 21.1202 74.8436 21.1202C74.01 21.1202 73.2244 20.9679 72.4869 20.6633C71.7654 20.3587 71.1241 19.9258 70.563 19.3647C70.0019 18.8196 69.561 18.1783 69.2403 17.4408C68.9357 16.6873 68.7834 15.9017 68.7834 15.0841C68.7834 14.2664 68.9357 13.4889 69.2403 12.7514C69.561 11.9978 70.0019 11.3405 70.563 10.7794C71.1241 10.2183 71.7654 9.78538 72.4869 9.48077C73.2244 9.17615 74.01 9.02384 74.8436 9.02384C75.6132 9.02384 76.3346 9.18417 77.008 9.50481C77.6974 9.82546 78.2826 10.2744 78.7635 10.8515V9.26433H80.9279V21H78.7635ZM74.8436 11.1642C74.3146 11.1642 73.8015 11.2684 73.3045 11.4768C72.8236 11.6692 72.4067 11.9417 72.054 12.2944C71.7013 12.6472 71.4207 13.072 71.2123 13.569C71.0199 14.05 70.9237 14.555 70.9237 15.0841C70.9237 15.6131 71.0199 16.1182 71.2123 16.5991C71.4207 17.0801 71.7013 17.4969 72.054 17.8496C72.4067 18.2024 72.8236 18.4829 73.3045 18.6913C73.8015 18.8837 74.3146 18.9799 74.8436 18.9799C75.3727 18.9799 75.8777 18.8837 76.3587 18.6913C76.8397 18.4829 77.2565 18.2024 77.6092 17.8496C77.9619 17.4969 78.2345 17.0801 78.4269 16.5991C78.6353 16.1182 78.7395 15.6131 78.7395 15.0841C78.7395 14.555 78.6353 14.05 78.4269 13.569C78.2345 13.072 77.9619 12.6472 77.6092 12.2944C77.2565 11.9417 76.8397 11.6692 76.3587 11.4768C75.8777 11.2684 75.3727 11.1642 74.8436 11.1642ZM88.689 11.2844C88.3042 11.108 87.9595 11.0199 87.6549 11.0199C87.0136 11.0199 86.4845 11.2443 86.0677 11.6932C85.6188 12.1742 85.3943 12.7273 85.3943 13.3526V21H83.3262V13.3526C83.3262 12.4868 83.5426 11.6932 83.9755 10.9718C84.4244 10.2503 85.0336 9.68919 85.8032 9.28838C86.3803 9.01583 86.9976 8.87955 87.6549 8.87955C88.184 8.87955 88.689 8.97575 89.17 9.16814C89.6509 9.36052 90.156 9.67315 90.685 10.106L88.689 11.2844ZM100.44 21V19.1723C99.927 19.7655 99.3338 20.2385 98.6605 20.5912C97.9871 20.9439 97.2737 21.1202 96.5202 21.1202C95.6865 21.1202 94.9009 20.9679 94.1634 20.6633C93.442 20.3587 92.8007 19.9258 92.2395 19.3647C91.6784 18.8196 91.2375 18.1783 90.9169 17.4408C90.6122 16.6873 90.4599 15.9017 90.4599 15.0841C90.4599 14.2664 90.6122 13.4889 90.9169 12.7514C91.2375 11.9978 91.6784 11.3405 92.2395 10.7794C92.8007 10.2183 93.442 9.78538 94.1634 9.48077C94.9009 9.17615 95.6865 9.02384 96.5202 9.02384C97.2897 9.02384 98.0112 9.18417 98.6845 9.50481C99.3739 9.82546 99.9591 10.2744 100.44 10.8515V9.26433H102.604V21H100.44ZM96.5202 11.1642C95.9911 11.1642 95.4781 11.2684 94.9811 11.4768C94.5001 11.6692 94.0832 11.9417 93.7305 12.2944C93.3778 12.6472 93.0973 13.072 92.8888 13.569C92.6965 14.05 92.6003 14.555 92.6003 15.0841C92.6003 15.6131 92.6965 16.1182 92.8888 16.5991C93.0973 17.0801 93.3778 17.4969 93.7305 17.8496C94.0832 18.2024 94.5001 18.4829 94.9811 18.6913C95.4781 18.8837 95.9911 18.9799 96.5202 18.9799C97.0492 18.9799 97.5543 18.8837 98.0352 18.6913C98.5162 18.4829 98.933 18.2024 99.2857 17.8496C99.6385 17.4969 99.911 17.0801 100.103 16.5991C100.312 16.1182 100.416 15.6131 100.416 15.0841C100.416 14.555 100.312 14.05 100.103 13.569C99.911 13.072 99.6385 12.6472 99.2857 12.2944C98.933 11.9417 98.5162 11.6692 98.0352 11.4768C97.5543 11.2684 97.0492 11.1642 96.5202 11.1642ZM108.61 11.1401V21H106.566V11.1401H104.762V8.97575H106.566V5.00774H108.61V8.97575H110.414V11.1401H108.61ZM127.186 21H125.045L122.568 14.1943L120.188 21H118.023L112.228 4.9837H114.56L119.081 17.513L121.39 10.9477L119.226 4.9837H121.558L123.675 10.8515L126.104 17.513L130.48 4.9837H132.813L127.186 21ZM134.525 15.9017C134.525 16.2865 134.661 16.6873 134.934 17.1041C135.222 17.521 135.551 17.8737 135.92 18.1623C136.593 18.6913 137.378 18.9559 138.276 18.9559C139.703 18.9559 140.865 18.2665 141.763 16.8877L143.591 17.9699C142.966 18.9799 142.196 19.7575 141.282 20.3026C140.368 20.8477 139.366 21.1202 138.276 21.1202C137.459 21.1202 136.681 20.9679 135.944 20.6633C135.206 20.3427 134.557 19.9018 133.996 19.3407C133.434 18.7795 132.994 18.1302 132.673 17.3927C132.368 16.6552 132.216 15.8777 132.216 15.06C132.216 14.2424 132.368 13.4648 132.673 12.7273C132.994 11.9738 133.434 11.3165 133.996 10.7553C134.541 10.1942 135.182 9.76133 135.92 9.45672C136.673 9.1521 137.459 8.9998 138.276 8.9998C139.094 8.9998 139.871 9.1521 140.609 9.45672C141.362 9.76133 142.012 10.1942 142.557 10.7553C143.743 11.9738 144.336 13.3846 144.336 14.9879C144.336 15.2765 144.312 15.5811 144.264 15.9017H134.525ZM138.276 10.9718C137.619 10.9718 137.002 11.1161 136.425 11.4046C135.847 11.6932 135.382 12.078 135.03 12.559C134.693 13.0239 134.525 13.5209 134.525 14.05H142.028C142.028 13.5209 141.851 13.0239 141.499 12.559C141.162 12.078 140.705 11.6932 140.128 11.4046C139.551 11.1161 138.934 10.9718 138.276 10.9718ZM152.609 21.1202C151.855 21.1202 151.126 20.9439 150.42 20.5912C149.731 20.2385 149.13 19.7575 148.617 19.1483V21H146.5V5.03179H148.617V10.7072C148.969 10.2102 149.49 9.76935 150.18 9.38457C150.885 8.9998 151.695 8.80741 152.609 8.80741C153.426 8.80741 154.212 8.96773 154.966 9.28838C155.719 9.60903 156.368 10.0499 156.913 10.611C157.475 11.1882 157.907 11.8536 158.212 12.6071C158.533 13.3446 158.693 14.1301 158.693 14.9638C158.693 15.7975 158.533 16.5911 158.212 17.3446C157.907 18.0821 157.475 18.7394 156.913 19.3166C156.368 19.8777 155.719 20.3186 154.966 20.6393C154.212 20.9599 153.426 21.1202 152.609 21.1202ZM152.609 10.9958C152.08 10.9958 151.567 11.1 151.07 11.3085C150.589 11.5008 150.172 11.7814 149.819 12.1501C149.466 12.5189 149.186 12.9518 148.977 13.4488C148.769 13.9297 148.665 14.4348 148.665 14.9638C148.665 16.038 149.05 16.9759 149.819 17.7775C150.172 18.1462 150.589 18.4348 151.07 18.6432C151.567 18.8517 152.08 18.9559 152.609 18.9559C153.138 18.9559 153.643 18.8517 154.124 18.6432C154.605 18.4348 155.022 18.1462 155.374 17.7775C156.144 16.9759 156.529 16.038 156.529 14.9638C156.529 14.4348 156.424 13.9297 156.216 13.4488C156.008 12.9518 155.727 12.5189 155.374 12.1501C155.022 11.7814 154.605 11.5008 154.124 11.3085C153.643 11.1 153.138 10.9958 152.609 10.9958Z" fill="#D12937"/>
<path d="M49.8997 4.9837L49.9041 4.73745H49.8997V4.9837ZM52.2564 5.60896L52.3824 5.39736V5.39736L52.2564 5.60896ZM53.7956 7.22021L53.5774 7.33449L53.5796 7.33848L53.7956 7.22021ZM53.9879 11.2844L53.7616 11.1874L53.7602 11.1906L53.9879 11.2844ZM53.0501 12.7514L52.8694 12.5841L52.6838 12.7845L52.9023 12.9484L53.0501 12.7514ZM54.3968 14.3626L54.1765 14.4728L54.1787 14.4771L54.3968 14.3626ZM54.3006 18.7394L54.5135 18.8632L54.3006 18.7394ZM52.6893 20.3988L52.8153 20.6104L52.8189 20.6082L52.6893 20.3988ZM45.2102 21H44.964V21.2462H45.2102V21ZM45.2102 4.9837V4.73745H44.964V4.9837H45.2102ZM47.3265 7.14806V6.90182H47.0803V7.14806H47.3265ZM47.3265 11.9097H47.0803V12.1559H47.3265V11.9097ZM51.559 11.2123L51.7362 11.3833H51.7362L51.559 11.2123ZM51.559 7.82142L51.3818 7.99238L51.3849 7.99554L51.559 7.82142ZM47.3265 14.074V13.8278H47.0803V14.074H47.3265ZM47.3265 18.8356H47.0803V19.0819H47.3265V18.8356ZM52.1122 18.1623L52.2863 18.3364L52.2893 18.3333L52.1122 18.1623ZM52.1122 14.7714L51.935 14.9425L52.1122 14.7714ZM49.8953 5.2299C50.7566 5.24528 51.499 5.44469 52.1305 5.82055L52.3824 5.39736C51.6671 4.97161 50.8384 4.75417 49.9041 4.73749L49.8953 5.2299ZM52.1305 5.82055C52.766 6.19882 53.2465 6.70275 53.5774 7.33447L54.0137 7.10595C53.6392 6.39095 53.0936 5.82071 52.3824 5.39736L52.1305 5.82055ZM53.5796 7.33848C53.9264 7.97182 54.1024 8.69193 54.1024 9.50481H54.5949C54.5949 8.61827 54.4022 7.81531 54.0115 7.10193L53.5796 7.33848ZM54.1024 9.50481C54.1024 10.0976 53.9886 10.6577 53.7616 11.1874L54.2143 11.3814C54.4682 10.7889 54.5949 10.1626 54.5949 9.50481H54.1024ZM53.7602 11.1906C53.547 11.7086 53.2503 12.1727 52.8694 12.5841L53.2307 12.9187C53.6515 12.4643 53.98 11.9504 54.2156 11.3782L53.7602 11.1906ZM52.9023 12.9484C53.4491 13.3584 53.8731 13.8659 54.1765 14.4727L54.617 14.2525C54.2792 13.5768 53.8053 13.01 53.1978 12.5544L52.9023 12.9484ZM54.1787 14.4771C54.4957 15.0809 54.6555 15.7466 54.6555 16.4789H55.148C55.148 15.672 54.9712 14.927 54.6148 14.2481L54.1787 14.4771ZM54.6555 16.4789C54.6555 17.2542 54.4661 17.9649 54.0877 18.6157L54.5135 18.8632C54.9367 18.1352 55.148 17.3389 55.148 16.4789H54.6555ZM54.0877 18.6157C53.707 19.2704 53.1985 19.794 52.5597 20.1894L52.8189 20.6082C53.5269 20.1699 54.0925 19.5873 54.5135 18.8632L54.0877 18.6157ZM52.5634 20.1872C51.9298 20.5643 51.2281 20.7538 50.4528 20.7538V21.2462C51.3128 21.2462 52.1021 21.0349 52.8153 20.6104L52.5634 20.1872ZM50.4528 20.7538H45.2102V21.2462H50.4528V20.7538ZM45.4565 21V4.9837H44.964V21H45.4565ZM45.2102 5.22994H49.8997V4.73745H45.2102V5.22994ZM47.0803 7.14806V11.9097H47.5728V7.14806H47.0803ZM47.3265 12.1559H49.8997V11.6634H47.3265V12.1559ZM49.8997 12.1559C50.6225 12.1559 51.24 11.8972 51.7362 11.3833L51.3819 11.0412C50.9803 11.4572 50.4915 11.6634 49.8997 11.6634V12.1559ZM51.7362 11.3833C52.2314 10.8704 52.4786 10.239 52.4786 9.50481H51.9862C51.9862 10.1173 51.7845 10.6243 51.3819 11.0412L51.7362 11.3833ZM52.4786 9.50481C52.4786 8.77054 52.2313 8.1454 51.7332 7.6473L51.3849 7.99554C51.7846 8.39525 51.9862 8.89237 51.9862 9.50481H52.4786ZM51.7363 7.65049C51.2531 7.14935 50.634 6.90182 49.8997 6.90182V7.39431C50.5121 7.39431 50.9993 7.59567 51.3818 7.99235L51.7363 7.65049ZM49.8997 6.90182H47.3265V7.39431H49.8997V6.90182ZM47.0803 14.074V18.8356H47.5728V14.074H47.0803ZM47.3265 19.0819H50.4528V18.5894H47.3265V19.0819ZM50.4528 19.0819C51.1729 19.0819 51.7894 18.8333 52.2863 18.3364L51.938 17.9882C51.5371 18.3891 51.0474 18.5894 50.4528 18.5894V19.0819ZM52.2893 18.3333C52.7834 17.8216 53.0318 17.1988 53.0318 16.4789H52.5393C52.5393 17.0736 52.3388 17.5731 51.935 17.9912L52.2893 18.3333ZM53.0318 16.4789C53.0318 15.7447 52.7846 15.1133 52.2893 14.6004L51.935 14.9425C52.3376 15.3594 52.5393 15.8664 52.5393 16.4789H53.0318ZM52.2893 14.6004C51.7931 14.0865 51.1757 13.8278 50.4528 13.8278V14.3203C51.0446 14.3203 51.5334 14.5265 51.935 14.9425L52.2893 14.6004ZM50.4528 13.8278H47.3265V14.3203H50.4528V13.8278ZM64.5011 21H64.2548V21.2462H64.5011V21ZM62.8417 11.1161L62.7407 11.3407L62.7447 11.3424L62.8417 11.1161ZM59.98 11.6932L59.8058 11.5191L59.98 11.6932ZM59.1864 21V21.2462H59.4326V21H59.1864ZM57.0701 21H56.8238V21.2462H57.0701V21ZM57.0701 4.95965V4.7134H56.8238V4.95965H57.0701ZM59.1864 4.95965H59.4326V4.7134H59.1864V4.95965ZM59.1864 9.81744H58.9401V10.3858L59.3548 9.99709L59.1864 9.81744ZM63.6834 9.12004L63.5834 9.34512L63.5887 9.34734L63.6834 9.12004ZM65.2225 10.1541L65.3998 9.98317L65.3967 9.98L65.2225 10.1541ZM66.2326 11.7413L66.0034 11.8318L66.0066 11.8391L66.2326 11.7413ZM66.6174 21V21.2462H66.8636V21H66.6174ZM64.7473 21V13.6171H64.2548V21H64.7473ZM64.7473 13.6171C64.7473 12.7988 64.4572 12.0947 63.8816 11.5191L63.5334 11.8674C64.0159 12.3499 64.2548 12.9284 64.2548 13.6171H64.7473ZM63.8816 11.5191C63.6173 11.2548 63.302 11.0454 62.9387 10.8897L62.7447 11.3424C63.0549 11.4753 63.3167 11.6507 63.5334 11.8674L63.8816 11.5191ZM62.9428 10.8915C62.5918 10.7336 62.2288 10.6534 61.8557 10.6534V11.1459C62.156 11.1459 62.4504 11.21 62.7407 11.3406L62.9428 10.8915ZM61.8557 10.6534C61.0663 10.6534 60.3792 10.9458 59.8058 11.5191L60.1541 11.8674C60.6389 11.3826 61.2023 11.1459 61.8557 11.1459V10.6534ZM59.8058 11.5191C59.2302 12.0947 58.9401 12.7988 58.9401 13.6171H59.4326C59.4326 12.9284 59.6716 12.3499 60.1541 11.8674L59.8058 11.5191ZM58.9401 13.6171V21H59.4326V13.6171H58.9401ZM59.1864 20.7538H57.0701V21.2462H59.1864V20.7538ZM57.3163 21V4.95965H56.8238V21H57.3163ZM57.0701 5.20589H59.1864V4.7134H57.0701V5.20589ZM58.9401 4.95965V9.81744H59.4326V4.95965H58.9401ZM59.3548 9.99709C60.0809 9.31633 60.9113 8.98151 61.8557 8.98151V8.48902C60.7802 8.48902 59.8309 8.87565 59.0179 9.6378L59.3548 9.99709ZM61.8557 8.98151C62.4631 8.98151 63.0382 9.10276 63.5834 9.34506L63.7834 8.89502C63.1743 8.62429 62.531 8.48902 61.8557 8.48902V8.98151ZM63.5887 9.34734C64.1357 9.57526 64.6219 9.90173 65.0484 10.3282L65.3967 9.98C64.9254 9.50871 64.3855 9.14578 63.7781 8.89274L63.5887 9.34734ZM65.0453 10.3251C65.4547 10.7496 65.7743 11.2509 66.0035 11.8317L66.4616 11.6509C66.2099 11.0132 65.8561 10.4565 65.3998 9.9832L65.0453 10.3251ZM66.0066 11.8391C66.2495 12.4009 66.3711 12.9928 66.3711 13.6171H66.8636C66.8636 12.9268 66.7287 12.2682 66.4586 11.6436L66.0066 11.8391ZM66.3711 13.6171V21H66.8636V13.6171H66.3711ZM66.6174 20.7538H64.5011V21.2462H66.6174V20.7538ZM78.7635 21H78.5173V21.2462H78.7635V21ZM78.7635 19.1723H79.0098V18.5112L78.5773 19.0112L78.7635 19.1723ZM76.9839 20.5912L76.8697 20.373L76.9839 20.5912ZM72.4869 20.6633L72.3911 20.8902L72.3929 20.8909L72.4869 20.6633ZM70.563 19.3647L70.7371 19.1906L70.7346 19.1881L70.563 19.3647ZM69.2403 17.4408L69.012 17.5331L69.0145 17.539L69.2403 17.4408ZM69.2403 12.7514L69.0137 12.6549L69.0127 12.6574L69.2403 12.7514ZM70.563 10.7794L70.7371 10.9535L70.563 10.7794ZM72.4869 9.48077L72.3929 9.25316L72.3911 9.25391L72.4869 9.48077ZM77.008 9.50481L76.9021 9.72715L76.9041 9.72809L77.008 9.50481ZM78.7635 10.8515L78.5744 11.0092L79.0098 11.5317V10.8515H78.7635ZM78.7635 9.26433V9.01808H78.5173V9.26433H78.7635ZM80.9279 9.26433H81.1741V9.01808H80.9279V9.26433ZM80.9279 21V21.2462H81.1741V21H80.9279ZM73.3045 11.4768L73.396 11.7055L73.3998 11.7039L73.3045 11.4768ZM72.054 12.2944L71.8799 12.1203L72.054 12.2944ZM71.2123 13.569L70.9852 13.4738L70.9837 13.4776L71.2123 13.569ZM71.2123 16.5991L70.9836 16.6906L70.9864 16.697L71.2123 16.5991ZM72.054 17.8496L72.2281 17.6755L72.054 17.8496ZM73.3045 18.6913L73.2065 18.9175L73.2156 18.921L73.3045 18.6913ZM76.3587 18.6913L76.4502 18.9201L76.4566 18.9173L76.3587 18.6913ZM77.6092 17.8496L77.4351 17.6755L77.6092 17.8496ZM78.4269 16.5991L78.2008 16.5012L78.1982 16.5077L78.4269 16.5991ZM78.4269 13.569L78.197 13.658L78.2009 13.6669L78.4269 13.569ZM76.3587 11.4768L76.2607 11.7028L76.2672 11.7054L76.3587 11.4768ZM79.0098 21V19.1723H78.5173V21H79.0098ZM78.5773 19.0112C78.0838 19.5818 77.5148 20.0351 76.8697 20.373L77.0982 20.8093C77.7998 20.4418 78.4172 19.9492 78.9498 19.3334L78.5773 19.0112ZM76.8697 20.373C76.2313 20.7075 75.557 20.874 74.8436 20.874V21.3665C75.6373 21.3665 76.3899 21.1803 77.0982 20.8093L76.8697 20.373ZM74.8436 20.874C74.0407 20.874 73.2872 20.7275 72.5809 20.4357L72.3929 20.8909C73.1615 21.2084 73.9792 21.3665 74.8436 21.3665V20.874ZM72.5827 20.4365C71.8909 20.1444 71.2761 19.7296 70.7371 19.1906L70.3889 19.5388C70.9722 20.1221 71.64 20.573 72.3911 20.8902L72.5827 20.4365ZM70.7346 19.1881C70.1971 18.666 69.7744 18.0515 69.4662 17.3426L69.0145 17.539C69.3476 18.3051 69.8066 18.9732 70.3914 19.5413L70.7346 19.1881ZM69.4686 17.3485C69.1759 16.6245 69.0297 15.8703 69.0297 15.0841H68.5372C68.5372 15.9332 68.6955 16.7501 69.012 17.5331L69.4686 17.3485ZM69.0297 15.0841C69.0297 14.2979 69.1759 13.5523 69.4679 12.8454L69.0127 12.6574C68.6955 13.4254 68.5372 14.235 68.5372 15.0841H69.0297ZM69.4669 12.8478C69.7756 12.1223 70.199 11.4916 70.7371 10.9535L70.3889 10.6053C69.8047 11.1894 69.3463 11.8733 69.0137 12.6549L69.4669 12.8478ZM70.7371 10.9535C71.2761 10.4145 71.8909 9.99971 72.5827 9.70762L72.3911 9.25391C71.64 9.57105 70.9722 10.022 70.3889 10.6053L70.7371 10.9535ZM72.5809 9.70836C73.2872 9.41661 74.0407 9.27009 74.8436 9.27009V8.7776C73.9792 8.7776 73.1615 8.93569 72.3929 9.25317L72.5809 9.70836ZM74.8436 9.27009C75.5778 9.27009 76.2629 9.42275 76.9021 9.72714L77.1139 9.28249C76.4064 8.94559 75.6486 8.7776 74.8436 8.7776V9.27009ZM76.9041 9.72809C77.561 10.0336 78.1169 10.4603 78.5744 11.0092L78.9527 10.6939C78.4482 10.0885 77.8338 9.61731 77.1118 9.28154L76.9041 9.72809ZM79.0098 10.8515V9.26433H78.5173V10.8515H79.0098ZM78.7635 9.51057H80.9279V9.01808H78.7635V9.51057ZM80.6817 9.26433V21H81.1741V9.26433H80.6817ZM80.9279 20.7538H78.7635V21.2462H80.9279V20.7538ZM74.8436 10.9179C74.2812 10.9179 73.7359 11.0289 73.2093 11.2497L73.3998 11.7039C73.8672 11.5079 74.3479 11.4104 74.8436 11.4104V10.9179ZM73.2131 11.2482C72.7024 11.4524 72.2571 11.7431 71.8799 12.1203L72.2281 12.4686C72.5563 12.1403 72.9448 11.8859 73.396 11.7054L73.2131 11.2482ZM71.8799 12.1203C71.5028 12.4974 71.205 12.9497 70.9852 13.4738L71.4394 13.6642C71.6365 13.1943 71.8998 12.7969 72.2281 12.4686L71.8799 12.1203ZM70.9837 13.4776C70.7794 13.9882 70.6775 14.5244 70.6775 15.0841H71.17C71.17 14.5856 71.2604 14.1117 71.4409 13.6605L70.9837 13.4776ZM70.6775 15.0841C70.6775 15.6438 70.7794 16.1799 70.9837 16.6906L71.4409 16.5077C71.2604 16.0564 71.17 15.5825 71.17 15.0841H70.6775ZM70.9864 16.697C71.2065 17.205 71.5042 17.648 71.8799 18.0238L72.2281 17.6755C71.8984 17.3458 71.635 16.9552 71.4383 16.5012L70.9864 16.697ZM71.8799 18.0238C72.2556 18.3995 72.6987 18.6972 73.2066 18.9173L73.4024 18.4654C72.9484 18.2687 72.5578 18.0052 72.2281 17.6755L71.8799 18.0238ZM73.2156 18.921C73.7408 19.1243 74.2839 19.2262 74.8436 19.2262V18.7337C74.3452 18.7337 73.8623 18.6432 73.3934 18.4617L73.2156 18.921ZM74.8436 19.2262C75.4033 19.2262 75.9395 19.1243 76.4501 18.92L76.2672 18.4627C75.816 18.6432 75.3421 18.7337 74.8436 18.7337V19.2262ZM76.4566 18.9173C76.9645 18.6972 77.4076 18.3995 77.7833 18.0238L77.4351 17.6755C77.1054 18.0052 76.7148 18.2687 76.2608 18.4654L76.4566 18.9173ZM77.7833 18.0238C78.1605 17.6466 78.4512 17.2013 78.6555 16.6906L78.1982 16.5077C78.0177 16.9589 77.7633 17.3473 77.4351 17.6755L77.7833 18.0238ZM78.6528 16.697C78.8747 16.1849 78.9857 15.6465 78.9857 15.0841H78.4932C78.4932 15.5798 78.3958 16.0514 78.2009 16.5012L78.6528 16.697ZM78.9857 15.0841C78.9857 14.5216 78.8747 13.9833 78.6528 13.4711L78.2009 13.6669C78.3958 14.1167 78.4932 14.5884 78.4932 15.0841H78.9857ZM78.6565 13.4801C78.4526 12.9534 78.1619 12.4989 77.7833 12.1203L77.4351 12.4686C77.7619 12.7954 78.0163 13.1906 78.1972 13.6579L78.6565 13.4801ZM77.7833 12.1203C77.4061 11.7431 76.9609 11.4524 76.4501 11.2482L76.2672 11.7054C76.7185 11.8859 77.1069 12.1403 77.4351 12.4686L77.7833 12.1203ZM76.4566 11.2508C75.9444 11.0289 75.4061 10.9179 74.8436 10.9179V11.4104C75.3393 11.4104 75.811 11.5078 76.2608 11.7027L76.4566 11.2508ZM88.689 11.2844L88.5864 11.5083L88.7034 11.5619L88.8142 11.4965L88.689 11.2844ZM86.0677 11.6932L86.2477 11.8612L86.2482 11.8608L86.0677 11.6932ZM85.3943 21V21.2462H85.6406V21H85.3943ZM83.3262 21H83.0799V21.2462H83.3262V21ZM83.9755 10.9718L83.7664 10.8417L83.7643 10.8451L83.9755 10.9718ZM85.8032 9.28838L85.6979 9.06554L85.6894 9.06998L85.8032 9.28838ZM89.17 9.16814L89.2614 8.9395L89.17 9.16814ZM90.685 10.106L90.8102 10.3181L91.1139 10.1388L90.841 9.91544L90.685 10.106ZM88.7916 11.0606C88.3864 10.8748 88.0059 10.7736 87.6549 10.7736V11.2661C87.9131 11.2661 88.2221 11.3413 88.5864 11.5083L88.7916 11.0606ZM87.6549 10.7736C86.9488 10.7736 86.3531 11.024 85.8873 11.5257L86.2482 11.8608C86.616 11.4646 87.0785 11.2661 87.6549 11.2661V10.7736ZM85.8877 11.5252C85.3987 12.0492 85.1481 12.6614 85.1481 13.3526H85.6406C85.6406 12.7932 85.8389 12.2992 86.2477 11.8612L85.8877 11.5252ZM85.1481 13.3526V21H85.6406V13.3526H85.1481ZM85.3943 20.7538H83.3262V21.2462H85.3943V20.7538ZM83.5724 21V13.3526H83.0799V21H83.5724ZM83.5724 13.3526C83.5724 12.5301 83.7774 11.7805 84.1866 11.0985L83.7643 10.8451C83.3078 11.606 83.0799 12.4436 83.0799 13.3526H83.5724ZM84.1846 11.1019C84.6097 10.4187 85.1856 9.88767 85.9169 9.50678L85.6894 9.06998C84.8816 9.49071 84.2391 10.082 83.7664 10.8417L84.1846 11.1019ZM85.9083 9.51105C86.4516 9.25449 87.0328 9.1258 87.6549 9.1258V8.63331C86.9623 8.63331 86.3091 8.77716 85.698 9.06571L85.9083 9.51105ZM87.6549 9.1258C88.1533 9.1258 88.6273 9.21627 89.0785 9.39677L89.2614 8.9395C88.7507 8.73523 88.2146 8.63331 87.6549 8.63331V9.1258ZM89.0785 9.39677C89.5301 9.5774 90.0136 9.87487 90.5291 10.2966L90.841 9.91544C90.2983 9.47144 89.7718 9.14365 89.2614 8.9395L89.0785 9.39677ZM90.5598 9.89398L88.5638 11.0724L88.8142 11.4965L90.8102 10.3181L90.5598 9.89398ZM100.44 21H100.194V21.2462H100.44V21ZM100.44 19.1723H100.686V18.5112L100.254 19.0112L100.44 19.1723ZM98.6605 20.5912L98.5462 20.373L98.6605 20.5912ZM94.1634 20.6633L94.0676 20.8902L94.0694 20.8909L94.1634 20.6633ZM92.2395 19.3647L92.4137 19.1906L92.4111 19.1881L92.2395 19.3647ZM90.9169 17.4408L90.6885 17.5331L90.691 17.539L90.9169 17.4408ZM90.9169 12.7514L90.6903 12.6549L90.6893 12.6574L90.9169 12.7514ZM92.2395 10.7794L92.4137 10.9535L92.2395 10.7794ZM94.1634 9.48077L94.0694 9.25316L94.0676 9.25391L94.1634 9.48077ZM98.6845 9.50481L98.5787 9.72715L98.5807 9.72809L98.6845 9.50481ZM100.44 10.8515L100.251 11.0092L100.686 11.5317V10.8515H100.44ZM100.44 9.26433V9.01808H100.194V9.26433H100.44ZM102.604 9.26433H102.851V9.01808H102.604V9.26433ZM102.604 21V21.2462H102.851V21H102.604ZM94.9811 11.4768L95.0725 11.7055L95.0763 11.7039L94.9811 11.4768ZM93.7305 12.2944L93.5564 12.1203L93.7305 12.2944ZM92.8888 13.569L92.6617 13.4738L92.6602 13.4776L92.8888 13.569ZM92.8888 16.5991L92.6601 16.6906L92.6629 16.697L92.8888 16.5991ZM93.7305 17.8496L93.9047 17.6755L93.7305 17.8496ZM94.9811 18.6913L94.8831 18.9175L94.8922 18.921L94.9811 18.6913ZM98.0352 18.6913L98.1267 18.9201L98.1331 18.9173L98.0352 18.6913ZM99.2857 17.8496L99.1116 17.6755L99.2857 17.8496ZM100.103 16.5991L99.8774 16.5012L99.8748 16.5077L100.103 16.5991ZM100.103 13.569L99.8736 13.658L99.8774 13.6669L100.103 13.569ZM98.0352 11.4768L97.9373 11.7028L97.9438 11.7054L98.0352 11.4768ZM100.686 21V19.1723H100.194V21H100.686ZM100.254 19.0112C99.7603 19.5818 99.1913 20.0351 98.5462 20.373L98.7747 20.8093C99.4763 20.4418 100.094 19.9492 100.626 19.3334L100.254 19.0112ZM98.5462 20.373C97.9078 20.7075 97.2335 20.874 96.5202 20.874V21.3665C97.3138 21.3665 98.0665 21.1803 98.7747 20.8093L98.5462 20.373ZM96.5202 20.874C95.7173 20.874 94.9638 20.7275 94.2574 20.4357L94.0694 20.8909C94.838 21.2084 95.6557 21.3665 96.5202 21.3665V20.874ZM94.2592 20.4365C93.5674 20.1444 92.9526 19.7296 92.4137 19.1906L92.0654 19.5388C92.6487 20.1221 93.3165 20.573 94.0676 20.8902L94.2592 20.4365ZM92.4111 19.1881C91.8736 18.666 91.4509 18.0515 91.1427 17.3426L90.691 17.539C91.0241 18.3051 91.4832 18.9732 92.068 19.5413L92.4111 19.1881ZM91.1452 17.3485C90.8525 16.6245 90.7062 15.8703 90.7062 15.0841H90.2137C90.2137 15.9332 90.372 16.7501 90.6886 17.5331L91.1452 17.3485ZM90.7062 15.0841C90.7062 14.2979 90.8525 13.5523 91.1445 12.8454L90.6893 12.6574C90.372 13.4254 90.2137 14.235 90.2137 15.0841H90.7062ZM91.1434 12.8478C91.4521 12.1223 91.8755 11.4916 92.4137 10.9535L92.0654 10.6053C91.4813 11.1894 91.0229 11.8733 90.6903 12.6549L91.1434 12.8478ZM92.4137 10.9535C92.9526 10.4145 93.5674 9.99971 94.2592 9.70762L94.0676 9.25391C93.3165 9.57105 92.6487 10.022 92.0654 10.6053L92.4137 10.9535ZM94.2574 9.70836C94.9638 9.41661 95.7173 9.27009 96.5202 9.27009V8.7776C95.6557 8.7776 94.838 8.93569 94.0694 9.25317L94.2574 9.70836ZM96.5202 9.27009C97.2543 9.27009 97.9394 9.42275 98.5787 9.72714L98.7904 9.28249C98.0829 8.94559 97.3251 8.7776 96.5202 8.7776V9.27009ZM98.5807 9.72809C99.2375 10.0336 99.7935 10.4603 100.251 11.0092L100.629 10.6939C100.125 10.0885 99.5103 9.61731 98.7884 9.28154L98.5807 9.72809ZM100.686 10.8515V9.26433H100.194V10.8515H100.686ZM100.44 9.51057H102.604V9.01808H100.44V9.51057ZM102.358 9.26433V21H102.851V9.26433H102.358ZM102.604 20.7538H100.44V21.2462H102.604V20.7538ZM96.5202 10.9179C95.9578 10.9179 95.4124 11.0289 94.8858 11.2497L95.0763 11.7039C95.5437 11.5079 96.0244 11.4104 96.5202 11.4104V10.9179ZM94.8896 11.2482C94.3789 11.4524 93.9336 11.7431 93.5564 12.1203L93.9047 12.4686C94.2329 12.1403 94.6213 11.8859 95.0725 11.7054L94.8896 11.2482ZM93.5564 12.1203C93.1793 12.4974 92.8815 12.9497 92.6618 13.4738L93.1159 13.6642C93.313 13.1943 93.5763 12.7969 93.9047 12.4686L93.5564 12.1203ZM92.6602 13.4776C92.4559 13.9882 92.354 14.5244 92.354 15.0841H92.8465C92.8465 14.5856 92.937 14.1117 93.1175 13.6605L92.6602 13.4776ZM92.354 15.0841C92.354 15.6438 92.4559 16.1799 92.6602 16.6906L93.1175 16.5077C92.937 16.0564 92.8465 15.5825 92.8465 15.0841H92.354ZM92.6629 16.697C92.883 17.205 93.1807 17.648 93.5564 18.0238L93.9047 17.6755C93.575 17.3458 93.3115 16.9552 93.1148 16.5012L92.6629 16.697ZM93.5564 18.0238C93.9321 18.3995 94.3752 18.6972 94.8832 18.9173L95.079 18.4654C94.625 18.2687 94.2344 18.0052 93.9047 17.6755L93.5564 18.0238ZM94.8922 18.921C95.4173 19.1243 95.9605 19.2262 96.5202 19.2262V18.7337C96.0217 18.7337 95.5388 18.6432 95.07 18.4617L94.8922 18.921ZM96.5202 19.2262C97.0799 19.2262 97.616 19.1243 98.1267 18.92L97.9438 18.4627C97.4925 18.6432 97.0186 18.7337 96.5202 18.7337V19.2262ZM98.1331 18.9173C98.6411 18.6972 99.0841 18.3995 99.4599 18.0238L99.1116 17.6755C98.7819 18.0052 98.3913 18.2687 97.9373 18.4654L98.1331 18.9173ZM99.4599 18.0238C99.8371 17.6466 100.128 17.2013 100.332 16.6906L99.8748 16.5077C99.6943 16.9589 99.4398 17.3473 99.1116 17.6755L99.4599 18.0238ZM100.329 16.697C100.551 16.1849 100.662 15.6465 100.662 15.0841H100.17C100.17 15.5798 100.072 16.0514 99.8774 16.5012L100.329 16.697ZM100.662 15.0841C100.662 14.5216 100.551 13.9833 100.329 13.4711L99.8774 13.6669C100.072 14.1167 100.17 14.5884 100.17 15.0841H100.662ZM100.333 13.4801C100.129 12.9534 99.8384 12.4989 99.4599 12.1203L99.1116 12.4686C99.4385 12.7954 99.6929 13.1906 99.8738 13.6579L100.333 13.4801ZM99.4599 12.1203C99.0827 11.7431 98.6374 11.4524 98.1267 11.2482L97.9438 11.7054C98.395 11.8859 98.7834 12.1403 99.1116 12.4686L99.4599 12.1203ZM98.1331 11.2508C97.621 11.0289 97.0826 10.9179 96.5202 10.9179V11.4104C97.0159 11.4104 97.4875 11.5078 97.9373 11.7027L98.1331 11.2508ZM108.61 11.1401V10.8939H108.364V11.1401H108.61ZM108.61 21V21.2462H108.856V21H108.61ZM106.566 21H106.32V21.2462H106.566V21ZM106.566 11.1401H106.812V10.8939H106.566V11.1401ZM104.762 11.1401H104.516V11.3864H104.762V11.1401ZM104.762 8.97575V8.7295H104.516V8.97575H104.762ZM106.566 8.97575V9.22199H106.812V8.97575H106.566ZM106.566 5.00774V4.7615H106.32V5.00774H106.566ZM108.61 5.00774H108.856V4.7615H108.61V5.00774ZM108.61 8.97575H108.364V9.22199H108.61V8.97575ZM110.414 8.97575H110.66V8.7295H110.414V8.97575ZM110.414 11.1401V11.3864H110.66V11.1401H110.414ZM108.364 11.1401V21H108.856V11.1401H108.364ZM108.61 20.7538H106.566V21.2462H108.61V20.7538ZM106.812 21V11.1401H106.32V21H106.812ZM106.566 10.8939H104.762V11.3864H106.566V10.8939ZM105.008 11.1401V8.97575H104.516V11.1401H105.008ZM104.762 9.22199H106.566V8.7295H104.762V9.22199ZM106.812 8.97575V5.00774H106.32V8.97575H106.812ZM106.566 5.25399H108.61V4.7615H106.566V5.25399ZM108.364 5.00774V8.97575H108.856V5.00774H108.364ZM108.61 9.22199H110.414V8.7295H108.61V9.22199ZM110.167 8.97575V11.1401H110.66V8.97575H110.167ZM110.414 10.8939H108.61V11.3864H110.414V10.8939ZM127.186 21V21.2462H127.36L127.418 21.0816L127.186 21ZM125.045 21L124.814 21.0842L124.873 21.2462H125.045V21ZM122.568 14.1943L122.8 14.1101L122.564 13.4617L122.336 14.113L122.568 14.1943ZM120.188 21V21.2462H120.362L120.42 21.0813L120.188 21ZM118.023 21L117.792 21.0838L117.851 21.2462H118.023V21ZM112.228 4.9837V4.73745H111.877L111.996 5.06749L112.228 4.9837ZM114.56 4.9837L114.792 4.90011L114.733 4.73745H114.56V4.9837ZM119.081 17.513L118.85 17.5965L119.084 18.2467L119.314 17.5947L119.081 17.513ZM121.39 10.9477L121.622 11.0294L121.652 10.9464L121.622 10.8637L121.39 10.9477ZM119.226 4.9837V4.73745H118.874L118.994 5.0677L119.226 4.9837ZM121.558 4.9837L121.79 4.90015L121.731 4.73745H121.558V4.9837ZM123.675 10.8515L123.443 10.9351L123.443 10.9359L123.675 10.8515ZM126.104 17.513L125.872 17.5973L126.109 18.2454L126.336 17.5942L126.104 17.513ZM130.48 4.9837V4.73745H130.306L130.248 4.90249L130.48 4.9837ZM132.813 4.9837L133.045 5.06532L133.161 4.73745H132.813V4.9837ZM127.186 20.7538H125.045V21.2462H127.186V20.7538ZM125.277 20.9158L122.8 14.1101L122.337 14.2785L124.814 21.0842L125.277 20.9158ZM122.336 14.113L119.955 20.9187L120.42 21.0813L122.801 14.2756L122.336 14.113ZM120.188 20.7538H118.023V21.2462H120.188V20.7538ZM118.255 20.9162L112.459 4.89991L111.996 5.06749L117.792 21.0838L118.255 20.9162ZM112.228 5.22994H114.56V4.73745H112.228V5.22994ZM114.329 5.06728L118.85 17.5965L119.313 17.4294L114.792 4.90011L114.329 5.06728ZM119.314 17.5947L121.622 11.0294L121.158 10.866L118.849 17.4313L119.314 17.5947ZM121.622 10.8637L119.457 4.89969L118.994 5.0677L121.159 11.0317L121.622 10.8637ZM119.226 5.22994H121.558V4.73745H119.226V5.22994ZM121.327 5.06724L123.443 10.9351L123.906 10.768L121.79 4.90015L121.327 5.06724ZM123.443 10.9359L125.872 17.5973L126.335 17.4286L123.906 10.7672L123.443 10.9359ZM126.336 17.5942L130.713 5.0649L130.248 4.90249L125.871 17.4318L126.336 17.5942ZM130.48 5.22994H132.813V4.73745H130.48V5.22994ZM132.581 4.90207L126.953 20.9184L127.418 21.0816L133.045 5.06532L132.581 4.90207ZM134.525 15.9017V15.6555H134.278V15.9017H134.525ZM134.934 17.1041L134.727 17.2389L134.731 17.2443L134.934 17.1041ZM135.92 18.1623L136.072 17.9686L136.071 17.9684L135.92 18.1623ZM141.763 16.8877L141.889 16.6758L141.686 16.5556L141.557 16.7533L141.763 16.8877ZM143.591 17.9699L143.8 18.0995L143.933 17.886L143.716 17.758L143.591 17.9699ZM141.282 20.3026L141.156 20.0911L141.282 20.3026ZM135.944 20.6633L135.845 20.8892L135.85 20.8909L135.944 20.6633ZM133.996 19.3407L134.17 19.1665L133.996 19.3407ZM132.673 17.3927L132.445 17.4867L132.447 17.4909L132.673 17.3927ZM132.673 12.7273L132.446 12.6309L132.445 12.6333L132.673 12.7273ZM133.996 10.7553L134.17 10.9295L134.172 10.9269L133.996 10.7553ZM135.92 9.45672L135.827 9.22841L135.826 9.22912L135.92 9.45672ZM140.609 9.45672L140.515 9.68432L140.517 9.68501L140.609 9.45672ZM142.557 10.7553L142.38 10.9269L142.38 10.9271L142.557 10.7553ZM144.264 15.9017V16.148H144.476L144.508 15.9382L144.264 15.9017ZM136.425 11.4046L136.314 11.1844L136.425 11.4046ZM135.03 12.559L134.831 12.4134L134.83 12.4145L135.03 12.559ZM134.525 14.05H134.278V14.2962H134.525V14.05ZM142.028 14.05V14.2962H142.274V14.05H142.028ZM141.499 12.559L141.297 12.7003L141.303 12.7078L141.499 12.559ZM134.278 15.9017C134.278 16.3466 134.436 16.7936 134.727 17.2389L135.14 16.9694C134.886 16.581 134.771 16.2264 134.771 15.9017H134.278ZM134.731 17.2443C135.033 17.6798 135.378 18.0511 135.768 18.3562L136.071 17.9684C135.724 17.6962 135.412 17.3621 135.136 16.964L134.731 17.2443ZM135.767 18.3559C136.486 18.9208 137.326 19.2021 138.276 19.2021V18.7096C137.431 18.7096 136.699 18.4619 136.072 17.9686L135.767 18.3559ZM138.276 19.2021C139.8 19.2021 141.035 18.4582 141.97 17.0221L141.557 16.7533C140.696 18.0748 139.606 18.7096 138.276 18.7096V19.2021ZM141.638 17.0996L143.466 18.1818L143.716 17.758L141.889 16.6758L141.638 17.0996ZM143.382 17.8403C142.775 18.8207 142.032 19.5685 141.156 20.0911L141.408 20.5141C142.36 19.9465 143.157 19.1391 143.8 18.0995L143.382 17.8403ZM141.156 20.0911C140.281 20.6129 139.323 20.874 138.276 20.874V21.3665C139.41 21.3665 140.456 21.0825 141.408 20.5141L141.156 20.0911ZM138.276 20.874C137.49 20.874 136.744 20.7277 136.038 20.4357L135.85 20.8909C136.618 21.2082 137.427 21.3665 138.276 21.3665V20.874ZM136.042 20.4375C135.332 20.129 134.709 19.7055 134.17 19.1665L133.822 19.5148C134.405 20.098 135.08 20.5563 135.845 20.8891L136.042 20.4375ZM134.17 19.1665C133.631 18.6275 133.207 18.0041 132.899 17.2945L132.447 17.4909C132.78 18.2563 133.238 18.9315 133.822 19.5148L134.17 19.1665ZM132.901 17.2987C132.609 16.5918 132.462 15.8462 132.462 15.06H131.97C131.97 15.9091 132.128 16.7187 132.445 17.4867L132.901 17.2987ZM132.462 15.06C132.462 14.2738 132.609 13.5283 132.901 12.8213L132.445 12.6333C132.128 13.4014 131.97 14.2109 131.97 15.06H132.462ZM132.9 12.8237C133.208 12.0983 133.632 11.4676 134.17 10.9295L133.822 10.5812C133.237 11.1654 132.779 11.8493 132.446 12.6309L132.9 12.8237ZM134.172 10.9269C134.693 10.3904 135.306 9.97636 136.014 9.68431L135.826 9.22912C135.058 9.54631 134.388 9.99802 133.819 10.5838L134.172 10.9269ZM136.012 9.68501C136.736 9.39233 137.49 9.24604 138.276 9.24604V8.75355C137.427 8.75355 136.61 8.91188 135.827 9.22842L136.012 9.68501ZM138.276 9.24604C139.062 9.24604 139.808 9.39232 140.515 9.68431L140.703 9.22912C139.935 8.91189 139.125 8.75355 138.276 8.75355V9.24604ZM140.517 9.68501C141.24 9.9773 141.86 10.3913 142.38 10.9269L142.734 10.5838C142.164 9.9971 141.485 9.54536 140.701 9.22842L140.517 9.68501ZM142.38 10.9271C143.525 12.1027 144.09 13.453 144.09 14.9879H144.583C144.583 13.3163 143.961 11.8449 142.733 10.5836L142.38 10.9271ZM144.09 14.9879C144.09 15.2628 144.067 15.5552 144.021 15.8652L144.508 15.9382C144.558 15.607 144.583 15.2901 144.583 14.9879H144.09ZM144.264 15.6555H134.525V16.148H144.264V15.6555ZM138.276 10.7255C137.581 10.7255 136.926 10.8784 136.314 11.1844L136.535 11.6249C137.077 11.3537 137.656 11.218 138.276 11.218V10.7255ZM136.314 11.1844C135.705 11.489 135.209 11.8983 134.831 12.4134L135.228 12.7046C135.556 12.2577 135.99 11.8974 136.535 11.6249L136.314 11.1844ZM134.83 12.4145C134.466 12.9177 134.278 13.4646 134.278 14.05H134.771C134.771 13.5773 134.92 13.1301 135.229 12.7034L134.83 12.4145ZM134.525 14.2962H142.028V13.8037H134.525V14.2962ZM142.274 14.05C142.274 13.4616 142.077 12.9132 141.695 12.4101L141.303 12.7078C141.626 13.1346 141.782 13.5802 141.782 14.05H142.274ZM141.7 12.4178C141.338 11.9 140.848 11.4894 140.238 11.1844L140.018 11.6249C140.562 11.897 140.986 12.256 141.297 12.7002L141.7 12.4178ZM140.238 11.1844C139.626 10.8784 138.971 10.7255 138.276 10.7255V11.218C138.896 11.218 139.476 11.3537 140.018 11.6249L140.238 11.1844ZM150.42 20.5912L150.308 20.8104L150.31 20.8114L150.42 20.5912ZM148.617 19.1483L148.805 18.9896L148.37 18.4736V19.1483H148.617ZM148.617 21V21.2462H148.863V21H148.617ZM146.5 21H146.254V21.2462H146.5V21ZM146.5 5.03179V4.78555H146.254V5.03179H146.5ZM148.617 5.03179H148.863V4.78555H148.617V5.03179ZM148.617 10.7072H148.37V11.4797L148.818 10.8498L148.617 10.7072ZM150.18 9.38457L150.062 9.16838L150.06 9.16955L150.18 9.38457ZM154.966 9.28838L154.869 9.51496L154.966 9.28838ZM156.913 10.611L156.737 10.7826L156.737 10.7827L156.913 10.611ZM158.212 12.6071L157.984 12.6994L157.986 12.7053L158.212 12.6071ZM158.212 17.3446L157.985 17.2482L157.984 17.2506L158.212 17.3446ZM156.913 19.3166L156.737 19.145L156.737 19.145L156.913 19.3166ZM154.966 20.6393L154.869 20.4127L154.966 20.6393ZM151.07 11.3085L151.161 11.5371L151.165 11.5355L151.07 11.3085ZM148.977 13.4488L149.203 13.5467L149.205 13.544L148.977 13.4488ZM149.819 17.7775L149.997 17.6073L149.997 17.607L149.819 17.7775ZM151.07 18.6432L150.972 18.8692L150.974 18.8703L151.07 18.6432ZM155.374 17.7775L155.197 17.607L155.196 17.6073L155.374 17.7775ZM156.216 13.4488L155.989 13.544L155.99 13.5467L156.216 13.4488ZM155.374 12.1502L155.552 11.9799L155.374 12.1502ZM154.124 11.3085L154.026 11.5345L154.032 11.5371L154.124 11.3085ZM152.609 20.874C151.895 20.874 151.203 20.7074 150.53 20.3709L150.31 20.8114C151.048 21.1804 151.815 21.3665 152.609 21.3665V20.874ZM150.533 20.372C149.873 20.0346 149.298 19.5745 148.805 18.9896L148.428 19.3069C148.962 19.9404 149.589 20.4423 150.308 20.8104L150.533 20.372ZM148.37 19.1483V21H148.863V19.1483H148.37ZM148.617 20.7538H146.5V21.2462H148.617V20.7538ZM146.747 21V5.03179H146.254V21H146.747ZM146.5 5.27804H148.617V4.78555H146.5V5.27804ZM148.37 5.03179V10.7072H148.863V5.03179H148.37ZM148.818 10.8498C149.144 10.3901 149.633 9.97159 150.3 9.59959L150.06 9.16955C149.348 9.56711 148.795 10.0304 148.416 10.5647L148.818 10.8498ZM150.298 9.60075C150.962 9.23828 151.73 9.05365 152.609 9.05365V8.56116C151.659 8.56116 150.808 8.76132 150.062 9.16839L150.298 9.60075ZM152.609 9.05365C153.393 9.05365 154.146 9.20727 154.869 9.51496L155.062 9.06179C154.278 8.72819 153.46 8.56116 152.609 8.56116V9.05365ZM154.869 9.51496C155.594 9.8234 156.216 10.2461 156.737 10.7826L157.09 10.4395C156.521 9.85376 155.844 9.39465 155.062 9.06179L154.869 9.51496ZM156.737 10.7827C157.276 11.3368 157.691 11.9751 157.984 12.6994L158.44 12.5148C158.124 11.732 157.674 11.0396 157.09 10.4394L156.737 10.7827ZM157.986 12.7053C158.293 13.4106 158.447 14.1627 158.447 14.9638H158.939C158.939 14.0976 158.773 13.2785 158.438 12.5089L157.986 12.7053ZM158.447 14.9638C158.447 15.765 158.293 16.5257 157.986 17.2482L158.439 17.441C158.773 16.6565 158.939 15.83 158.939 14.9638H158.447ZM157.984 17.2506C157.692 17.959 157.276 18.59 156.737 19.145L157.09 19.4883C157.673 18.8889 158.123 18.2053 158.44 17.4386L157.984 17.2506ZM156.737 19.145C156.216 19.6816 155.594 20.1042 154.869 20.4127L155.062 20.8659C155.844 20.533 156.521 20.0739 157.09 19.4882L156.737 19.145ZM154.869 20.4127C154.146 20.7204 153.393 20.874 152.609 20.874V21.3665C153.46 21.3665 154.278 21.1995 155.062 20.8659L154.869 20.4127ZM152.609 10.7496C152.046 10.7496 151.501 10.8605 150.974 11.0814L151.165 11.5355C151.632 11.3395 152.113 11.2421 152.609 11.2421V10.7496ZM150.978 11.0798C150.465 11.2851 150.019 11.5854 149.641 11.9799L149.997 12.3204C150.325 11.9774 150.712 11.7166 151.161 11.5371L150.978 11.0798ZM149.641 11.9799C149.267 12.3717 148.97 12.8303 148.75 13.3535L149.205 13.544C149.402 13.0732 149.666 12.6661 149.997 12.3204L149.641 11.9799ZM148.752 13.3509C148.53 13.863 148.419 14.4014 148.419 14.9638H148.911C148.911 14.4681 149.009 13.9964 149.203 13.5467L148.752 13.3509ZM148.419 14.9638C148.419 16.104 148.83 17.1023 149.642 17.948L149.997 17.607C149.27 16.8495 148.911 15.972 148.911 14.9638H148.419ZM149.641 17.9477C150.017 18.3408 150.462 18.6481 150.972 18.8692L151.168 18.4173C150.716 18.2216 150.326 17.9517 149.997 17.6073L149.641 17.9477ZM150.974 18.8703C151.501 19.0912 152.046 19.2021 152.609 19.2021V18.7096C152.113 18.7096 151.632 18.6122 151.165 18.4162L150.974 18.8703ZM152.609 19.2021C153.171 19.2021 153.71 19.0911 154.222 18.8692L154.026 18.4173C153.576 18.6122 153.104 18.7096 152.609 18.7096V19.2021ZM154.222 18.8692C154.732 18.6481 155.176 18.3408 155.552 17.9477L155.196 17.6073C154.867 17.9517 154.478 18.2216 154.026 18.4173L154.222 18.8692ZM155.552 17.948C156.364 17.1023 156.775 16.104 156.775 14.9638H156.282C156.282 15.972 155.924 16.8495 155.197 17.607L155.552 17.948ZM156.775 14.9638C156.775 14.4014 156.664 13.863 156.442 13.3509L155.99 13.5467C156.185 13.9964 156.282 14.4681 156.282 14.9638H156.775ZM156.443 13.3535C156.224 12.8303 155.927 12.3717 155.552 11.9799L155.196 12.3204C155.527 12.6661 155.792 13.0732 155.989 13.544L156.443 13.3535ZM155.552 11.9799C155.175 11.5854 154.728 11.2851 154.215 11.0798L154.032 11.5371C154.481 11.7166 154.868 11.9774 155.196 12.3204L155.552 11.9799ZM154.222 11.0825C153.71 10.8606 153.171 10.7496 152.609 10.7496V11.2421C153.104 11.2421 153.576 11.3395 154.026 11.5344L154.222 11.0825Z" fill="#D12937" mask="url(#path-14-outside-3_2382_2130)"/>
<path fill-rule="evenodd" clip-rule="evenodd" d="M254.366 15.1344C254.366 18.5342 251.61 21.2902 248.211 21.2902C244.811 21.2902 242.055 18.5342 242.055 15.1344C242.055 11.7346 244.811 8.97852 248.211 8.97852C250.103 8.97852 251.795 9.83219 252.925 11.1754C252.333 10.9624 251.696 10.8464 251.031 10.8464C247.945 10.8464 245.444 13.348 245.444 16.4338C245.444 17.5751 245.786 18.6364 246.373 19.5209C246.172 18.9438 246.062 18.3236 246.062 17.6778C246.062 17.3681 246.087 17.0642 246.136 16.7682C246.567 17.4605 247.336 17.9211 248.212 17.9211C249.562 17.9211 250.657 16.8263 250.657 15.4759C250.657 14.2291 249.724 13.2003 248.518 13.0497C249.411 12.4441 250.489 12.0903 251.649 12.0903C252.404 12.0903 253.124 12.24 253.781 12.5114C254.157 13.3071 254.366 14.1962 254.366 15.1344Z" fill="#D12937"/>
<path fill-rule="evenodd" clip-rule="evenodd" d="M248.24 21.2882C251.63 21.2882 254.377 18.5407 254.377 15.1515C254.377 14.4475 254.259 13.7712 254.04 13.1415C253.711 13.0844 253.372 13.0547 253.027 13.0547C251.943 13.0547 250.928 13.3465 250.056 13.8559C250.744 14.3552 251.192 15.1661 251.192 16.0815C251.192 17.599 249.962 18.8291 248.444 18.8291C247.973 18.8291 247.53 18.7106 247.142 18.5017C247.131 18.6517 247.125 18.8033 247.125 18.9562C247.125 19.7713 247.29 20.5478 247.589 21.2541C247.803 21.2767 248.02 21.2882 248.24 21.2882Z" fill="#D12937"/>
<path fill-rule="evenodd" clip-rule="evenodd" d="M248.252 21.289C251.641 21.289 254.389 18.5415 254.389 15.1522C254.389 14.7221 254.344 14.3022 254.26 13.8971C254.149 13.8908 254.037 13.8877 253.925 13.8877C252.696 13.8877 251.556 14.2631 250.611 14.9053C250.655 15.0895 250.679 15.2818 250.679 15.4796C250.679 16.7996 249.633 17.8752 248.325 17.9231C248.129 18.5096 248.023 19.1371 248.023 19.7892C248.023 20.3074 248.09 20.81 248.216 21.2889C248.228 21.2889 248.24 21.289 248.252 21.289Z" fill="#D12937"/>
<path fill-rule="evenodd" clip-rule="evenodd" d="M248.858 21.2574C251.96 20.9501 254.383 18.3334 254.383 15.1508C254.383 14.9963 254.377 14.8431 254.366 14.6914C253.178 14.7621 252.084 15.1843 251.188 15.8553C251.194 15.9303 251.197 16.0061 251.197 16.0826C251.197 17.3724 250.309 18.4546 249.11 18.7504C248.922 19.3271 248.82 19.9428 248.82 20.5824C248.82 20.8106 248.833 21.0359 248.858 21.2574Z" fill="#D12937"/>
<path fill-rule="evenodd" clip-rule="evenodd" d="M254.341 15.4756C254.195 18.2892 252.153 20.6013 249.469 21.1597C249.529 18.3085 251.612 15.9549 254.341 15.4756Z" fill="#D12937"/>
<path fill-rule="evenodd" clip-rule="evenodd" d="M254.306 16.1299C253.949 18.3604 252.389 20.1892 250.312 20.9312C250.619 18.676 252.2 16.826 254.306 16.1299Z" fill="#D12937"/>
<path fill-rule="evenodd" clip-rule="evenodd" d="M249.151 11.1697C246.99 11.9417 245.444 14.0067 245.444 16.4328C245.444 17.5741 245.786 18.6355 246.373 19.5199C246.369 19.5091 246.366 19.4982 246.362 19.4873C246.848 20.2293 247.506 20.8487 248.279 21.2889C248.256 21.2891 248.233 21.2892 248.211 21.2892C244.811 21.2892 242.055 18.5332 242.055 15.1334C242.055 11.7336 244.811 8.97754 248.211 8.97754C250.099 8.97754 251.788 9.82762 252.918 11.1659C252.331 10.9565 251.698 10.8424 251.039 10.8424C250.377 10.8424 249.741 10.9578 249.151 11.1697Z" fill="#0044C9"/>
<path fill-rule="evenodd" clip-rule="evenodd" d="M246.491 13.1742C247.342 11.9896 248.645 11.1518 250.148 10.9131C250.438 10.8666 250.736 10.8424 251.039 10.8424C251.698 10.8424 252.331 10.9565 252.918 11.1659C251.788 9.82762 250.099 8.97754 248.211 8.97754C244.811 8.97754 242.055 11.7336 242.055 15.1334C242.055 15.824 242.168 16.488 242.378 17.1078C242.783 15.0753 244.428 13.4899 246.491 13.1742Z" fill="#0044C9"/>
<path fill-rule="evenodd" clip-rule="evenodd" d="M248.935 11.2493C249.319 11.0939 249.725 10.98 250.146 10.9131C250.436 10.8666 250.734 10.8424 251.037 10.8424C251.696 10.8424 252.328 10.9565 252.915 11.1659C251.786 9.82762 250.096 8.97754 248.208 8.97754C246.367 8.97754 244.714 9.78615 243.586 11.0677C244.348 10.7435 245.186 10.5642 246.066 10.5642C247.098 10.5642 248.073 10.8112 248.935 11.2493Z" fill="#0044C9"/>
</svg>
