<svg width="28" height="28" viewBox="0 0 28 28" fill="none" xmlns="http://www.w3.org/2000/svg">
<path fill-rule="evenodd" clip-rule="evenodd" d="M28 14C28 21.732 21.732 28 14 28C6.26801 28 0 21.732 0 14C0 6.26801 6.26801 0 14 0C18.2992 0 22.1458 1.93788 24.714 4.98778C23.3722 4.50591 21.9259 4.24336 20.4183 4.24336C13.4002 4.24336 7.71094 9.93262 7.71094 16.9507C7.71094 19.5601 8.49746 21.9858 9.84638 24.0037C9.38068 22.6821 9.12734 21.2603 9.12734 19.7794C9.12734 19.0853 9.18299 18.4042 9.29007 17.7404C10.2744 19.3036 12.0155 20.3423 13.9993 20.3423C17.0705 20.3423 19.5602 17.8525 19.5602 14.7813C19.5602 11.9467 17.4395 9.60753 14.6981 9.2638C16.7324 7.8805 19.1891 7.07207 21.8347 7.07207C23.5439 7.07207 25.1743 7.40953 26.6629 8.02146C27.5204 9.83451 28 11.8612 28 14Z" fill="#D12937"/>
<path fill-rule="evenodd" clip-rule="evenodd" d="M14.0479 27.9907C21.7559 27.9907 28.0044 21.7422 28.0044 14.0342C28.0044 12.435 27.7354 10.8985 27.2402 9.46771C26.4895 9.33744 25.7174 9.26953 24.9294 9.26953C22.4652 9.26953 20.1561 9.93362 18.1713 11.0926C19.734 12.2285 20.75 14.0709 20.75 16.1506C20.75 19.6017 17.9523 22.3994 14.5012 22.3994C13.4326 22.3994 12.4266 22.1312 11.547 21.6583C11.521 21.9992 11.5078 22.3436 11.5078 22.6911C11.5078 24.5431 11.8829 26.3075 12.5613 27.9125C13.0498 27.9642 13.5457 27.9907 14.0479 27.9907Z" fill="#D12937"/>
<path fill-rule="evenodd" clip-rule="evenodd" d="M14.0526 27.9913C21.7606 27.9913 28.0091 21.7428 28.0091 14.0348C28.0091 13.0581 27.9088 12.1048 27.7179 11.1848C27.4749 11.1717 27.2303 11.165 26.9841 11.165C24.1799 11.165 21.5765 12.025 19.4234 13.4956C19.5211 13.9082 19.5727 14.3386 19.5727 14.7811C19.5727 17.7728 17.2103 20.2127 14.2492 20.3371C13.8037 21.6726 13.5625 23.1014 13.5625 24.5866C13.5625 25.763 13.7138 26.904 13.9981 27.9912C14.0163 27.9913 14.0344 27.9913 14.0526 27.9913Z" fill="#D12937"/>
<path fill-rule="evenodd" clip-rule="evenodd" d="M15.4387 27.9315C22.4933 27.2332 28.0036 21.2818 28.0036 14.0435C28.0036 13.6912 27.9906 13.3419 27.9649 12.9961C25.2613 13.1567 22.7731 14.1176 20.7339 15.6452C20.7477 15.8143 20.7547 15.9854 20.7547 16.1581C20.7547 19.09 18.7355 21.5503 16.0118 22.2242C15.5833 23.5367 15.3516 24.9382 15.3516 26.3937C15.3516 26.9138 15.3811 27.4269 15.4387 27.9315Z" fill="#D12937"/>
<path fill-rule="evenodd" clip-rule="evenodd" d="M27.9272 14.7705C27.596 21.1865 22.932 26.4568 16.8047 27.7118C16.94 21.2097 21.6992 15.8441 27.9272 14.7705Z" fill="#D12937"/>
<path fill-rule="evenodd" clip-rule="evenodd" d="M27.7866 16.2832C26.9692 21.3277 23.4479 25.4658 18.7578 27.1621C19.4611 22.0621 23.0297 17.8768 27.7866 16.2832Z" fill="#D12937"/>
<path fill-rule="evenodd" clip-rule="evenodd" d="M19.4972 4.27623C12.9065 4.7455 7.70547 10.2409 7.70547 16.9511C7.70547 21.684 10.293 25.8126 14.1306 27.9994C14.0871 27.9998 14.0436 28 14 28C6.26801 28 0 21.732 0 14C0 6.26801 6.26801 0 14 0C18.2992 0 22.1458 1.93788 24.714 4.98778C23.3722 4.50591 21.9259 4.24336 20.4183 4.24336C20.1085 4.24336 19.8013 4.25444 19.4972 4.27623Z" fill="#0044C9"/>
<path fill-rule="evenodd" clip-rule="evenodd" d="M10.0891 9.54011C12.2288 6.56479 15.6229 4.55209 19.4972 4.27623C19.8013 4.25444 20.1085 4.24336 20.4183 4.24336C21.9259 4.24336 23.3722 4.50591 24.714 4.98778C22.1458 1.93788 18.2992 0 14 0C6.26801 0 0 6.26801 0 14C0 15.5489 0.251544 17.0391 0.716011 18.4319C1.65794 13.8274 5.40222 10.2436 10.0891 9.54011Z" fill="#0044C9"/>
<path fill-rule="evenodd" clip-rule="evenodd" d="M20.4327 4.24336C21.4602 4.24336 22.4593 4.36533 23.4162 4.59558C23.4823 4.61147 23.5481 4.62787 23.6137 4.64479C23.9962 4.74332 24.3717 4.8592 24.7394 4.99156C22.1712 1.93948 18.3232 0 14.0222 0C9.84571 0 6.09633 1.82885 3.53125 4.72941C5.24772 4.00804 7.13324 3.60938 9.11187 3.60938C11.4657 3.60938 13.6877 4.17355 15.6502 5.17406C17.1264 4.57395 18.7409 4.24336 20.4327 4.24336Z" fill="#0044C9"/>
</svg>
